<?xml version="1.0" encoding="utf-8" standalone="no"?>
<!DOCTYPE svg PUBLIC "-//W3C//DTD SVG 1.1//EN"
  "http://www.w3.org/Graphics/SVG/1.1/DTD/svg11.dtd">
<svg xmlns:xlink="http://www.w3.org/1999/xlink" width="460.8pt" height="345.6pt" viewBox="0 0 460.8 345.6" xmlns="http://www.w3.org/2000/svg" version="1.1">
 <metadata>
  <rdf:RDF xmlns:dc="http://purl.org/dc/elements/1.1/" xmlns:cc="http://creativecommons.org/ns#" xmlns:rdf="http://www.w3.org/1999/02/22-rdf-syntax-ns#">
   <cc:Work>
    <dc:type rdf:resource="http://purl.org/dc/dcmitype/StillImage"/>
    <dc:date>2024-12-23T19:57:49.380899</dc:date>
    <dc:format>image/svg+xml</dc:format>
    <dc:creator>
     <cc:Agent>
      <dc:title>Matplotlib v3.9.4, https://matplotlib.org/</dc:title>
     </cc:Agent>
    </dc:creator>
   </cc:Work>
  </rdf:RDF>
 </metadata>
 <defs>
  <style type="text/css">*{stroke-linejoin: round; stroke-linecap: butt}</style>
 </defs>
 <g id="figure_1">
  <g id="patch_1">
   <path d="M 0 345.6 
L 460.8 345.6 
L 460.8 0 
L 0 0 
z
" style="fill: #ffffff"/>
  </g>
  <g id="axes_1">
   <g id="patch_2">
    <path d="M 57.6 307.584 
L 414.72 307.584 
L 414.72 41.472 
L 57.6 41.472 
z
" style="fill: #ffffff"/>
   </g>
   <g id="PolyCollection_1">
    <path d="M 57.6 233.664 
L 57.6 307.584 
L 61.1712 307.584 
L 64.7424 307.584 
L 68.3136 307.584 
L 71.8848 307.584 
L 75.456 307.584 
L 79.0272 307.584 
L 82.5984 307.584 
L 86.1696 307.584 
L 89.7408 307.584 
L 93.312 307.584 
L 96.8832 307.584 
L 100.4544 307.584 
L 104.0256 307.584 
L 107.5968 307.584 
L 111.168 307.584 
L 114.7392 307.584 
L 118.3104 307.584 
L 121.8816 307.584 
L 125.4528 307.584 
L 129.024 307.584 
L 132.5952 307.584 
L 136.1664 307.584 
L 139.7376 307.584 
L 143.3088 307.584 
L 146.88 307.584 
L 150.4512 307.584 
L 154.0224 307.584 
L 157.5936 307.584 
L 161.1648 307.584 
L 164.736 307.584 
L 168.3072 307.584 
L 171.8784 307.584 
L 175.4496 307.584 
L 179.0208 307.584 
L 182.592 307.584 
L 186.1632 307.584 
L 189.7344 307.584 
L 193.3056 307.584 
L 196.8768 307.584 
L 200.448 307.584 
L 204.0192 307.584 
L 207.5904 307.584 
L 211.1616 307.584 
L 214.7328 307.584 
L 218.304 307.584 
L 221.8752 307.584 
L 225.4464 307.584 
L 229.0176 307.584 
L 232.5888 307.584 
L 236.16 307.584 
L 239.7312 307.584 
L 243.3024 307.584 
L 246.8736 307.584 
L 250.4448 307.584 
L 254.016 307.584 
L 257.5872 307.584 
L 261.1584 307.584 
L 264.7296 307.584 
L 268.3008 307.584 
L 271.872 307.584 
L 275.4432 307.584 
L 279.0144 307.584 
L 282.5856 307.584 
L 286.1568 307.584 
L 289.728 307.584 
L 293.2992 307.584 
L 296.8704 307.584 
L 300.4416 307.584 
L 304.0128 307.584 
L 307.584 307.584 
L 311.1552 307.584 
L 314.7264 307.584 
L 318.2976 307.584 
L 321.8688 307.584 
L 325.44 307.584 
L 329.0112 307.584 
L 332.5824 307.584 
L 336.1536 307.584 
L 339.7248 307.584 
L 343.296 307.584 
L 346.8672 307.584 
L 350.4384 307.584 
L 354.0096 307.584 
L 357.5808 307.584 
L 361.152 307.584 
L 364.7232 307.584 
L 368.2944 307.584 
L 371.8656 307.584 
L 375.4368 307.584 
L 379.008 307.584 
L 382.5792 307.584 
L 386.1504 307.584 
L 389.7216 307.584 
L 393.2928 307.584 
L 396.864 307.584 
L 400.4352 307.584 
L 404.0064 307.584 
L 407.5776 307.584 
L 411.1488 307.584 
L 414.72 307.584 
L 414.72 307.584 
L 414.72 307.584 
L 411.1488 307.565762 
L 407.5776 307.511068 
L 404.0064 307.41997 
L 400.4352 307.292559 
L 396.864 307.128961 
L 393.2928 306.929337 
L 389.7216 306.693884 
L 386.1504 306.422834 
L 382.5792 306.116455 
L 379.008 305.775049 
L 375.4368 305.398953 
L 371.8656 304.988539 
L 368.2944 304.544211 
L 364.7232 304.066408 
L 361.152 303.555601 
L 357.5808 303.012295 
L 354.0096 302.437025 
L 350.4384 301.83036 
L 346.8672 301.192898 
L 343.296 300.525268 
L 339.7248 299.828129 
L 336.1536 299.102169 
L 332.5824 298.348105 
L 329.0112 297.56668 
L 325.44 296.758667 
L 321.8688 295.924861 
L 318.2976 295.066087 
L 314.7264 294.183191 
L 311.1552 293.277045 
L 307.584 292.348543 
L 304.0128 291.398602 
L 300.4416 290.428158 
L 296.8704 289.438171 
L 293.2992 288.429616 
L 289.728 287.403489 
L 286.1568 286.360803 
L 282.5856 285.302586 
L 279.0144 284.229883 
L 275.4432 283.143754 
L 271.872 282.045268 
L 268.3008 280.935511 
L 264.7296 279.815578 
L 261.1584 278.686574 
L 257.5872 277.549613 
L 254.016 276.405818 
L 250.4448 275.256316 
L 246.8736 274.102243 
L 243.3024 272.944738 
L 239.7312 271.784942 
L 236.16 270.624 
L 232.5888 269.463058 
L 229.0176 268.303262 
L 225.4464 267.145757 
L 221.8752 265.991684 
L 218.304 264.842182 
L 214.7328 263.698387 
L 211.1616 262.561426 
L 207.5904 261.432422 
L 204.0192 260.312489 
L 200.448 259.202732 
L 196.8768 258.104246 
L 193.3056 257.018117 
L 189.7344 255.945414 
L 186.1632 254.887197 
L 182.592 253.844511 
L 179.0208 252.818384 
L 175.4496 251.809829 
L 171.8784 250.819842 
L 168.3072 249.849398 
L 164.736 248.899457 
L 161.1648 247.970955 
L 157.5936 247.064809 
L 154.0224 246.181913 
L 150.4512 245.323139 
L 146.88 244.489333 
L 143.3088 243.68132 
L 139.7376 242.899895 
L 136.1664 242.145831 
L 132.5952 241.419871 
L 129.024 240.722732 
L 125.4528 240.055102 
L 121.8816 239.41764 
L 118.3104 238.810975 
L 114.7392 238.235705 
L 111.168 237.692399 
L 107.5968 237.181592 
L 104.0256 236.703789 
L 100.4544 236.259461 
L 96.8832 235.849047 
L 93.312 235.472951 
L 89.7408 235.131545 
L 86.1696 234.825166 
L 82.5984 234.554116 
L 79.0272 234.318663 
L 75.456 234.119039 
L 71.8848 233.955441 
L 68.3136 233.82803 
L 64.7424 233.736932 
L 61.1712 233.682238 
L 57.6 233.664 
z
" clip-path="url(#pec01440535)" style="fill: #57ffff"/>
   </g>
   <g id="PolyCollection_2">
    <path d="M 57.6 233.664 
L 57.6 233.664 
L 61.1712 233.682238 
L 64.7424 233.736932 
L 68.3136 233.82803 
L 71.8848 233.955441 
L 75.456 234.119039 
L 79.0272 234.318663 
L 82.5984 234.554116 
L 86.1696 234.825166 
L 89.7408 235.131545 
L 93.312 235.472951 
L 96.8832 235.849047 
L 100.4544 236.259461 
L 104.0256 236.703789 
L 107.5968 237.181592 
L 111.168 237.692399 
L 114.7392 238.235705 
L 118.3104 238.810975 
L 121.8816 239.41764 
L 125.4528 240.055102 
L 129.024 240.722732 
L 132.5952 241.419871 
L 136.1664 242.145831 
L 139.7376 242.899895 
L 143.3088 243.68132 
L 146.88 244.489333 
L 150.4512 245.323139 
L 154.0224 246.181913 
L 157.5936 247.064809 
L 161.1648 247.970955 
L 164.736 248.899457 
L 168.3072 249.849398 
L 171.8784 250.819842 
L 175.4496 251.809829 
L 179.0208 252.818384 
L 182.592 253.844511 
L 186.1632 254.887197 
L 189.7344 255.945414 
L 193.3056 257.018117 
L 196.8768 258.104246 
L 200.448 259.202732 
L 204.0192 260.312489 
L 207.5904 261.432422 
L 211.1616 262.561426 
L 214.7328 263.698387 
L 218.304 264.842182 
L 221.8752 265.991684 
L 225.4464 267.145757 
L 229.0176 268.303262 
L 232.5888 269.463058 
L 236.16 270.624 
L 239.7312 271.784942 
L 243.3024 272.944738 
L 246.8736 274.102243 
L 250.4448 275.256316 
L 254.016 276.405818 
L 257.5872 277.549613 
L 261.1584 278.686574 
L 264.7296 279.815578 
L 268.3008 280.935511 
L 271.872 282.045268 
L 275.4432 283.143754 
L 279.0144 284.229883 
L 282.5856 285.302586 
L 286.1568 286.360803 
L 289.728 287.403489 
L 293.2992 288.429616 
L 296.8704 289.438171 
L 300.4416 290.428158 
L 304.0128 291.398602 
L 307.584 292.348543 
L 311.1552 293.277045 
L 314.7264 294.183191 
L 318.2976 295.066087 
L 321.8688 295.924861 
L 325.44 296.758667 
L 329.0112 297.56668 
L 332.5824 298.348105 
L 336.1536 299.102169 
L 339.7248 299.828129 
L 343.296 300.525268 
L 346.8672 301.192898 
L 350.4384 301.83036 
L 354.0096 302.437025 
L 357.5808 303.012295 
L 361.152 303.555601 
L 364.7232 304.066408 
L 368.2944 304.544211 
L 371.8656 304.988539 
L 375.4368 305.398953 
L 379.008 305.775049 
L 382.5792 306.116455 
L 386.1504 306.422834 
L 389.7216 306.693884 
L 393.2928 306.929337 
L 396.864 307.128961 
L 400.4352 307.292559 
L 404.0064 307.41997 
L 407.5776 307.511068 
L 411.1488 307.565762 
L 414.72 307.584 
L 414.72 233.664 
L 414.72 233.664 
L 411.1488 233.664 
L 407.5776 233.664 
L 404.0064 233.664 
L 400.4352 233.664 
L 396.864 233.664 
L 393.2928 233.664 
L 389.7216 233.664 
L 386.1504 233.664 
L 382.5792 233.664 
L 379.008 233.664 
L 375.4368 233.664 
L 371.8656 233.664 
L 368.2944 233.664 
L 364.7232 233.664 
L 361.152 233.664 
L 357.5808 233.664 
L 354.0096 233.664 
L 350.4384 233.664 
L 346.8672 233.664 
L 343.296 233.664 
L 339.7248 233.664 
L 336.1536 233.664 
L 332.5824 233.664 
L 329.0112 233.664 
L 325.44 233.664 
L 321.8688 233.664 
L 318.2976 233.664 
L 314.7264 233.664 
L 311.1552 233.664 
L 307.584 233.664 
L 304.0128 233.664 
L 300.4416 233.664 
L 296.8704 233.664 
L 293.2992 233.664 
L 289.728 233.664 
L 286.1568 233.664 
L 282.5856 233.664 
L 279.0144 233.664 
L 275.4432 233.664 
L 271.872 233.664 
L 268.3008 233.664 
L 264.7296 233.664 
L 261.1584 233.664 
L 257.5872 233.664 
L 254.016 233.664 
L 250.4448 233.664 
L 246.8736 233.664 
L 243.3024 233.664 
L 239.7312 233.664 
L 236.16 233.664 
L 232.5888 233.664 
L 229.0176 233.664 
L 225.4464 233.664 
L 221.8752 233.664 
L 218.304 233.664 
L 214.7328 233.664 
L 211.1616 233.664 
L 207.5904 233.664 
L 204.0192 233.664 
L 200.448 233.664 
L 196.8768 233.664 
L 193.3056 233.664 
L 189.7344 233.664 
L 186.1632 233.664 
L 182.592 233.664 
L 179.0208 233.664 
L 175.4496 233.664 
L 171.8784 233.664 
L 168.3072 233.664 
L 164.736 233.664 
L 161.1648 233.664 
L 157.5936 233.664 
L 154.0224 233.664 
L 150.4512 233.664 
L 146.88 233.664 
L 143.3088 233.664 
L 139.7376 233.664 
L 136.1664 233.664 
L 132.5952 233.664 
L 129.024 233.664 
L 125.4528 233.664 
L 121.8816 233.664 
L 118.3104 233.664 
L 114.7392 233.664 
L 111.168 233.664 
L 107.5968 233.664 
L 104.0256 233.664 
L 100.4544 233.664 
L 96.8832 233.664 
L 93.312 233.664 
L 89.7408 233.664 
L 86.1696 233.664 
L 82.5984 233.664 
L 79.0272 233.664 
L 75.456 233.664 
L 71.8848 233.664 
L 68.3136 233.664 
L 64.7424 233.664 
L 61.1712 233.664 
L 57.6 233.664 
z
" clip-path="url(#pec01440535)" style="fill: #2b568c"/>
   </g>
   <g id="PolyCollection_3">
    <path d="M 57.6 233.664 
L 57.6 233.664 
L 61.1712 233.664 
L 64.7424 233.664 
L 68.3136 233.664 
L 71.8848 233.664 
L 75.456 233.664 
L 79.0272 233.664 
L 82.5984 233.664 
L 86.1696 233.664 
L 89.7408 233.664 
L 93.312 233.664 
L 96.8832 233.664 
L 100.4544 233.664 
L 104.0256 233.664 
L 107.5968 233.664 
L 111.168 233.664 
L 114.7392 233.664 
L 118.3104 233.664 
L 121.8816 233.664 
L 125.4528 233.664 
L 129.024 233.664 
L 132.5952 233.664 
L 136.1664 233.664 
L 139.7376 233.664 
L 143.3088 233.664 
L 146.88 233.664 
L 150.4512 233.664 
L 154.0224 233.664 
L 157.5936 233.664 
L 161.1648 233.664 
L 164.736 233.664 
L 168.3072 233.664 
L 171.8784 233.664 
L 175.4496 233.664 
L 179.0208 233.664 
L 182.592 233.664 
L 186.1632 233.664 
L 189.7344 233.664 
L 193.3056 233.664 
L 196.8768 233.664 
L 200.448 233.664 
L 204.0192 233.664 
L 207.5904 233.664 
L 211.1616 233.664 
L 214.7328 233.664 
L 218.304 233.664 
L 221.8752 233.664 
L 225.4464 233.664 
L 229.0176 233.664 
L 232.5888 233.664 
L 236.16 233.664 
L 239.7312 233.664 
L 243.3024 233.664 
L 246.8736 233.664 
L 250.4448 233.664 
L 254.016 233.664 
L 257.5872 233.664 
L 261.1584 233.664 
L 264.7296 233.664 
L 268.3008 233.664 
L 271.872 233.664 
L 275.4432 233.664 
L 279.0144 233.664 
L 282.5856 233.664 
L 286.1568 233.664 
L 289.728 233.664 
L 293.2992 233.664 
L 296.8704 233.664 
L 300.4416 233.664 
L 304.0128 233.664 
L 307.584 233.664 
L 311.1552 233.664 
L 314.7264 233.664 
L 318.2976 233.664 
L 321.8688 233.664 
L 325.44 233.664 
L 329.0112 233.664 
L 332.5824 233.664 
L 336.1536 233.664 
L 339.7248 233.664 
L 343.296 233.664 
L 346.8672 233.664 
L 350.4384 233.664 
L 354.0096 233.664 
L 357.5808 233.664 
L 361.152 233.664 
L 364.7232 233.664 
L 368.2944 233.664 
L 371.8656 233.664 
L 375.4368 233.664 
L 379.008 233.664 
L 382.5792 233.664 
L 386.1504 233.664 
L 389.7216 233.664 
L 393.2928 233.664 
L 396.864 233.664 
L 400.4352 233.664 
L 404.0064 233.664 
L 407.5776 233.664 
L 411.1488 233.664 
L 414.72 233.664 
L 414.72 233.664 
L 414.72 233.664 
L 411.1488 232.503058 
L 407.5776 231.343262 
L 404.0064 230.185757 
L 400.4352 229.031684 
L 396.864 227.882182 
L 393.2928 226.738387 
L 389.7216 225.601426 
L 386.1504 224.472422 
L 382.5792 223.352489 
L 379.008 222.242732 
L 375.4368 221.144246 
L 371.8656 220.058117 
L 368.2944 218.985414 
L 364.7232 217.927197 
L 361.152 216.884511 
L 357.5808 215.858384 
L 354.0096 214.849829 
L 350.4384 213.859842 
L 346.8672 212.889398 
L 343.296 211.939457 
L 339.7248 211.010955 
L 336.1536 210.104809 
L 332.5824 209.221913 
L 329.0112 208.363139 
L 325.44 207.529333 
L 321.8688 206.72132 
L 318.2976 205.939895 
L 314.7264 205.185831 
L 311.1552 204.459871 
L 307.584 203.762732 
L 304.0128 203.095102 
L 300.4416 202.45764 
L 296.8704 201.850975 
L 293.2992 201.275705 
L 289.728 200.732399 
L 286.1568 200.221592 
L 282.5856 199.743789 
L 279.0144 199.299461 
L 275.4432 198.889047 
L 271.872 198.512951 
L 268.3008 198.171545 
L 264.7296 197.865166 
L 261.1584 197.594116 
L 257.5872 197.358663 
L 254.016 197.159039 
L 250.4448 196.995441 
L 246.8736 196.86803 
L 243.3024 196.776932 
L 239.7312 196.722238 
L 236.16 196.704 
L 232.5888 196.722238 
L 229.0176 196.776932 
L 225.4464 196.86803 
L 221.8752 196.995441 
L 218.304 197.159039 
L 214.7328 197.358663 
L 211.1616 197.594116 
L 207.5904 197.865166 
L 204.0192 198.171545 
L 200.448 198.512951 
L 196.8768 198.889047 
L 193.3056 199.299461 
L 189.7344 199.743789 
L 186.1632 200.221592 
L 182.592 200.732399 
L 179.0208 201.275705 
L 175.4496 201.850975 
L 171.8784 202.45764 
L 168.3072 203.095102 
L 164.736 203.762732 
L 161.1648 204.459871 
L 157.5936 205.185831 
L 154.0224 205.939895 
L 150.4512 206.72132 
L 146.88 207.529333 
L 143.3088 208.363139 
L 139.7376 209.221913 
L 136.1664 210.104809 
L 132.5952 211.010955 
L 129.024 211.939457 
L 125.4528 212.889398 
L 121.8816 213.859842 
L 118.3104 214.849829 
L 114.7392 215.858384 
L 111.168 216.884511 
L 107.5968 217.927197 
L 104.0256 218.985414 
L 100.4544 220.058117 
L 96.8832 221.144246 
L 93.312 222.242732 
L 89.7408 223.352489 
L 86.1696 224.472422 
L 82.5984 225.601426 
L 79.0272 226.738387 
L 75.456 227.882182 
L 71.8848 229.031684 
L 68.3136 230.185757 
L 64.7424 231.343262 
L 61.1712 232.503058 
L 57.6 233.664 
z
" clip-path="url(#pec01440535)" style="fill: #007da3"/>
   </g>
   <g id="PolyCollection_4">
    <path d="M 57.6 233.664 
L 57.6 233.664 
L 61.1712 232.503058 
L 64.7424 231.343262 
L 68.3136 230.185757 
L 71.8848 229.031684 
L 75.456 227.882182 
L 79.0272 226.738387 
L 82.5984 225.601426 
L 86.1696 224.472422 
L 89.7408 223.352489 
L 93.312 222.242732 
L 96.8832 221.144246 
L 100.4544 220.058117 
L 104.0256 218.985414 
L 107.5968 217.927197 
L 111.168 216.884511 
L 114.7392 215.858384 
L 118.3104 214.849829 
L 121.8816 213.859842 
L 125.4528 212.889398 
L 129.024 211.939457 
L 132.5952 211.010955 
L 136.1664 210.104809 
L 139.7376 209.221913 
L 143.3088 208.363139 
L 146.88 207.529333 
L 150.4512 206.72132 
L 154.0224 205.939895 
L 157.5936 205.185831 
L 161.1648 204.459871 
L 164.736 203.762732 
L 168.3072 203.095102 
L 171.8784 202.45764 
L 175.4496 201.850975 
L 179.0208 201.275705 
L 182.592 200.732399 
L 186.1632 200.221592 
L 189.7344 199.743789 
L 193.3056 199.299461 
L 196.8768 198.889047 
L 200.448 198.512951 
L 204.0192 198.171545 
L 207.5904 197.865166 
L 211.1616 197.594116 
L 214.7328 197.358663 
L 218.304 197.159039 
L 221.8752 196.995441 
L 225.4464 196.86803 
L 229.0176 196.776932 
L 232.5888 196.722238 
L 236.16 196.704 
L 239.7312 196.722238 
L 243.3024 196.776932 
L 246.8736 196.86803 
L 250.4448 196.995441 
L 254.016 197.159039 
L 257.5872 197.358663 
L 261.1584 197.594116 
L 264.7296 197.865166 
L 268.3008 198.171545 
L 271.872 198.512951 
L 275.4432 198.889047 
L 279.0144 199.299461 
L 282.5856 199.743789 
L 286.1568 200.221592 
L 289.728 200.732399 
L 293.2992 201.275705 
L 296.8704 201.850975 
L 300.4416 202.45764 
L 304.0128 203.095102 
L 307.584 203.762732 
L 311.1552 204.459871 
L 314.7264 205.185831 
L 318.2976 205.939895 
L 321.8688 206.72132 
L 325.44 207.529333 
L 329.0112 208.363139 
L 332.5824 209.221913 
L 336.1536 210.104809 
L 339.7248 211.010955 
L 343.296 211.939457 
L 346.8672 212.889398 
L 350.4384 213.859842 
L 354.0096 214.849829 
L 357.5808 215.858384 
L 361.152 216.884511 
L 364.7232 217.927197 
L 368.2944 218.985414 
L 371.8656 220.058117 
L 375.4368 221.144246 
L 379.008 222.242732 
L 382.5792 223.352489 
L 386.1504 224.472422 
L 389.7216 225.601426 
L 393.2928 226.738387 
L 396.864 227.882182 
L 400.4352 229.031684 
L 404.0064 230.185757 
L 407.5776 231.343262 
L 411.1488 232.503058 
L 414.72 233.664 
L 414.72 233.664 
L 414.72 233.664 
L 411.1488 231.342117 
L 407.5776 229.022525 
L 404.0064 226.707513 
L 400.4352 224.399367 
L 396.864 222.100364 
L 393.2928 219.812773 
L 389.7216 217.538852 
L 386.1504 215.280844 
L 382.5792 213.040977 
L 379.008 210.821464 
L 375.4368 208.624493 
L 371.8656 206.452233 
L 368.2944 204.306828 
L 364.7232 202.190395 
L 361.152 200.105022 
L 357.5808 198.052768 
L 354.0096 196.035659 
L 350.4384 194.055683 
L 346.8672 192.114797 
L 343.296 190.214914 
L 339.7248 188.357911 
L 336.1536 186.545619 
L 332.5824 184.779827 
L 329.0112 183.062278 
L 325.44 181.394667 
L 321.8688 179.778639 
L 318.2976 178.21579 
L 314.7264 176.707661 
L 311.1552 175.255741 
L 307.584 173.861464 
L 304.0128 172.526204 
L 300.4416 171.25128 
L 296.8704 170.037949 
L 293.2992 168.88741 
L 289.728 167.800798 
L 286.1568 166.779184 
L 282.5856 165.823578 
L 279.0144 164.934922 
L 275.4432 164.114094 
L 271.872 163.361902 
L 268.3008 162.679091 
L 264.7296 162.066333 
L 261.1584 161.524233 
L 257.5872 161.053326 
L 254.016 160.654078 
L 250.4448 160.326881 
L 246.8736 160.07206 
L 243.3024 159.889864 
L 239.7312 159.780475 
L 236.16 159.744 
L 232.5888 159.780475 
L 229.0176 159.889864 
L 225.4464 160.07206 
L 221.8752 160.326881 
L 218.304 160.654078 
L 214.7328 161.053326 
L 211.1616 161.524233 
L 207.5904 162.066333 
L 204.0192 162.679091 
L 200.448 163.361902 
L 196.8768 164.114094 
L 193.3056 164.934922 
L 189.7344 165.823578 
L 186.1632 166.779184 
L 182.592 167.800798 
L 179.0208 168.88741 
L 175.4496 170.037949 
L 171.8784 171.25128 
L 168.3072 172.526204 
L 164.736 173.861464 
L 161.1648 175.255741 
L 157.5936 176.707661 
L 154.0224 178.21579 
L 150.4512 179.778639 
L 146.88 181.394667 
L 143.3088 183.062278 
L 139.7376 184.779827 
L 136.1664 186.545619 
L 132.5952 188.357911 
L 129.024 190.214914 
L 125.4528 192.114797 
L 121.8816 194.055683 
L 118.3104 196.035659 
L 114.7392 198.052768 
L 111.168 200.105022 
L 107.5968 202.190395 
L 104.0256 204.306828 
L 100.4544 206.452233 
L 96.8832 208.624493 
L 93.312 210.821464 
L 89.7408 213.040977 
L 86.1696 215.280844 
L 82.5984 217.538852 
L 79.0272 219.812773 
L 75.456 222.100364 
L 71.8848 224.399367 
L 68.3136 226.707513 
L 64.7424 229.022525 
L 61.1712 231.342117 
L 57.6 233.664 
z
" clip-path="url(#pec01440535)" style="fill: #ffa502"/>
   </g>
   <g id="PolyCollection_5">
    <path d="M 57.6 233.664 
L 57.6 233.664 
L 61.1712 231.342117 
L 64.7424 229.022525 
L 68.3136 226.707513 
L 71.8848 224.399367 
L 75.456 222.100364 
L 79.0272 219.812773 
L 82.5984 217.538852 
L 86.1696 215.280844 
L 89.7408 213.040977 
L 93.312 210.821464 
L 96.8832 208.624493 
L 100.4544 206.452233 
L 104.0256 204.306828 
L 107.5968 202.190395 
L 111.168 200.105022 
L 114.7392 198.052768 
L 118.3104 196.035659 
L 121.8816 194.055683 
L 125.4528 192.114797 
L 129.024 190.214914 
L 132.5952 188.357911 
L 136.1664 186.545619 
L 139.7376 184.779827 
L 143.3088 183.062278 
L 146.88 181.394667 
L 150.4512 179.778639 
L 154.0224 178.21579 
L 157.5936 176.707661 
L 161.1648 175.255741 
L 164.736 173.861464 
L 168.3072 172.526204 
L 171.8784 171.25128 
L 175.4496 170.037949 
L 179.0208 168.88741 
L 182.592 167.800798 
L 186.1632 166.779184 
L 189.7344 165.823578 
L 193.3056 164.934922 
L 196.8768 164.114094 
L 200.448 163.361902 
L 204.0192 162.679091 
L 207.5904 162.066333 
L 211.1616 161.524233 
L 214.7328 161.053326 
L 218.304 160.654078 
L 221.8752 160.326881 
L 225.4464 160.07206 
L 229.0176 159.889864 
L 232.5888 159.780475 
L 236.16 159.744 
L 239.7312 159.780475 
L 243.3024 159.889864 
L 246.8736 160.07206 
L 250.4448 160.326881 
L 254.016 160.654078 
L 257.5872 161.053326 
L 261.1584 161.524233 
L 264.7296 162.066333 
L 268.3008 162.679091 
L 271.872 163.361902 
L 275.4432 164.114094 
L 279.0144 164.934922 
L 282.5856 165.823578 
L 286.1568 166.779184 
L 289.728 167.800798 
L 293.2992 168.88741 
L 296.8704 170.037949 
L 300.4416 171.25128 
L 304.0128 172.526204 
L 307.584 173.861464 
L 311.1552 175.255741 
L 314.7264 176.707661 
L 318.2976 178.21579 
L 321.8688 179.778639 
L 325.44 181.394667 
L 329.0112 183.062278 
L 332.5824 184.779827 
L 336.1536 186.545619 
L 339.7248 188.357911 
L 343.296 190.214914 
L 346.8672 192.114797 
L 350.4384 194.055683 
L 354.0096 196.035659 
L 357.5808 198.052768 
L 361.152 200.105022 
L 364.7232 202.190395 
L 368.2944 204.306828 
L 371.8656 206.452233 
L 375.4368 208.624493 
L 379.008 210.821464 
L 382.5792 213.040977 
L 386.1504 215.280844 
L 389.7216 217.538852 
L 393.2928 219.812773 
L 396.864 222.100364 
L 400.4352 224.399367 
L 404.0064 226.707513 
L 407.5776 229.022525 
L 411.1488 231.342117 
L 414.72 233.664 
L 414.72 233.664 
L 414.72 233.664 
L 411.1488 230.181175 
L 407.5776 226.701787 
L 404.0064 223.22927 
L 400.4352 219.767051 
L 396.864 216.318547 
L 393.2928 212.88716 
L 389.7216 209.476277 
L 386.1504 206.089265 
L 382.5792 202.729466 
L 379.008 199.400196 
L 375.4368 196.104739 
L 371.8656 192.84635 
L 368.2944 189.628242 
L 364.7232 186.453592 
L 361.152 183.325533 
L 357.5808 180.247153 
L 354.0096 177.221488 
L 350.4384 174.251525 
L 346.8672 171.340195 
L 343.296 168.490371 
L 339.7248 165.704866 
L 336.1536 162.986428 
L 332.5824 160.33774 
L 329.0112 157.761417 
L 325.44 155.26 
L 321.8688 152.835959 
L 318.2976 150.491685 
L 314.7264 148.229492 
L 311.1552 146.051612 
L 307.584 143.960196 
L 304.0128 141.957306 
L 300.4416 140.04492 
L 296.8704 138.224924 
L 293.2992 136.499115 
L 289.728 134.869197 
L 286.1568 133.336776 
L 282.5856 131.903367 
L 279.0144 130.570383 
L 275.4432 129.33914 
L 271.872 128.210853 
L 268.3008 127.186636 
L 264.7296 126.267499 
L 261.1584 125.454349 
L 257.5872 124.74799 
L 254.016 124.149117 
L 250.4448 123.658322 
L 246.8736 123.276089 
L 243.3024 123.002796 
L 239.7312 122.838713 
L 236.16 122.784 
L 232.5888 122.838713 
L 229.0176 123.002796 
L 225.4464 123.276089 
L 221.8752 123.658322 
L 218.304 124.149117 
L 214.7328 124.74799 
L 211.1616 125.454349 
L 207.5904 126.267499 
L 204.0192 127.186636 
L 200.448 128.210853 
L 196.8768 129.33914 
L 193.3056 130.570383 
L 189.7344 131.903367 
L 186.1632 133.336776 
L 182.592 134.869197 
L 179.0208 136.499115 
L 175.4496 138.224924 
L 171.8784 140.04492 
L 168.3072 141.957306 
L 164.736 143.960196 
L 161.1648 146.051612 
L 157.5936 148.229492 
L 154.0224 150.491685 
L 150.4512 152.835959 
L 146.88 155.26 
L 143.3088 157.761417 
L 139.7376 160.33774 
L 136.1664 162.986428 
L 132.5952 165.704866 
L 129.024 168.490371 
L 125.4528 171.340195 
L 121.8816 174.251525 
L 118.3104 177.221488 
L 114.7392 180.247153 
L 111.168 183.325533 
L 107.5968 186.453592 
L 104.0256 189.628242 
L 100.4544 192.84635 
L 96.8832 196.104739 
L 93.312 199.400196 
L 89.7408 202.729466 
L 86.1696 206.089265 
L 82.5984 209.476277 
L 79.0272 212.88716 
L 75.456 216.318547 
L 71.8848 219.767051 
L 68.3136 223.22927 
L 64.7424 226.701787 
L 61.1712 230.181175 
L 57.6 233.664 
z
" clip-path="url(#pec01440535)" style="fill: #7abaff"/>
   </g>
   <g id="PolyCollection_6">
    <path d="M 57.6 233.664 
L 57.6 233.664 
L 61.1712 230.181175 
L 64.7424 226.701787 
L 68.3136 223.22927 
L 71.8848 219.767051 
L 75.456 216.318547 
L 79.0272 212.88716 
L 82.5984 209.476277 
L 86.1696 206.089265 
L 89.7408 202.729466 
L 93.312 199.400196 
L 96.8832 196.104739 
L 100.4544 192.84635 
L 104.0256 189.628242 
L 107.5968 186.453592 
L 111.168 183.325533 
L 114.7392 180.247153 
L 118.3104 177.221488 
L 121.8816 174.251525 
L 125.4528 171.340195 
L 129.024 168.490371 
L 132.5952 165.704866 
L 136.1664 162.986428 
L 139.7376 160.33774 
L 143.3088 157.761417 
L 146.88 155.26 
L 150.4512 152.835959 
L 154.0224 150.491685 
L 157.5936 148.229492 
L 161.1648 146.051612 
L 164.736 143.960196 
L 168.3072 141.957306 
L 171.8784 140.04492 
L 175.4496 138.224924 
L 179.0208 136.499115 
L 182.592 134.869197 
L 186.1632 133.336776 
L 189.7344 131.903367 
L 193.3056 130.570383 
L 196.8768 129.33914 
L 200.448 128.210853 
L 204.0192 127.186636 
L 207.5904 126.267499 
L 211.1616 125.454349 
L 214.7328 124.74799 
L 218.304 124.149117 
L 221.8752 123.658322 
L 225.4464 123.276089 
L 229.0176 123.002796 
L 232.5888 122.838713 
L 236.16 122.784 
L 239.7312 122.838713 
L 243.3024 123.002796 
L 246.8736 123.276089 
L 250.4448 123.658322 
L 254.016 124.149117 
L 257.5872 124.74799 
L 261.1584 125.454349 
L 264.7296 126.267499 
L 268.3008 127.186636 
L 271.872 128.210853 
L 275.4432 129.33914 
L 279.0144 130.570383 
L 282.5856 131.903367 
L 286.1568 133.336776 
L 289.728 134.869197 
L 293.2992 136.499115 
L 296.8704 138.224924 
L 300.4416 140.04492 
L 304.0128 141.957306 
L 307.584 143.960196 
L 311.1552 146.051612 
L 314.7264 148.229492 
L 318.2976 150.491685 
L 321.8688 152.835959 
L 325.44 155.26 
L 329.0112 157.761417 
L 332.5824 160.33774 
L 336.1536 162.986428 
L 339.7248 165.704866 
L 343.296 168.490371 
L 346.8672 171.340195 
L 350.4384 174.251525 
L 354.0096 177.221488 
L 357.5808 180.247153 
L 361.152 183.325533 
L 364.7232 186.453592 
L 368.2944 189.628242 
L 371.8656 192.84635 
L 375.4368 196.104739 
L 379.008 199.400196 
L 382.5792 202.729466 
L 386.1504 206.089265 
L 389.7216 209.476277 
L 393.2928 212.88716 
L 396.864 216.318547 
L 400.4352 219.767051 
L 404.0064 223.22927 
L 407.5776 226.701787 
L 411.1488 230.181175 
L 414.72 233.664 
L 414.72 233.664 
L 414.72 233.664 
L 411.1488 229.020233 
L 407.5776 224.38105 
L 404.0064 219.751027 
L 400.4352 215.134735 
L 396.864 210.536729 
L 393.2928 205.961546 
L 389.7216 201.413703 
L 386.1504 196.897687 
L 382.5792 192.417955 
L 379.008 187.978928 
L 375.4368 183.584986 
L 371.8656 179.240466 
L 368.2944 174.949656 
L 364.7232 170.71679 
L 361.152 166.546045 
L 357.5808 162.441537 
L 354.0096 158.407317 
L 350.4384 154.447367 
L 346.8672 150.565593 
L 343.296 146.765828 
L 339.7248 143.051821 
L 336.1536 139.427237 
L 332.5824 135.895654 
L 329.0112 132.460556 
L 325.44 129.125333 
L 321.8688 125.893278 
L 318.2976 122.767579 
L 314.7264 119.751322 
L 311.1552 116.847483 
L 307.584 114.058928 
L 304.0128 111.388408 
L 300.4416 108.838559 
L 296.8704 106.411899 
L 293.2992 104.11082 
L 289.728 101.937595 
L 286.1568 99.894369 
L 282.5856 97.983156 
L 279.0144 96.205844 
L 275.4432 94.564187 
L 271.872 93.059805 
L 268.3008 91.694182 
L 264.7296 90.468665 
L 261.1584 89.384466 
L 257.5872 88.442653 
L 254.016 87.644156 
L 250.4448 86.989763 
L 246.8736 86.480119 
L 243.3024 86.115728 
L 239.7312 85.89695 
L 236.16 85.824 
L 232.5888 85.89695 
L 229.0176 86.115728 
L 225.4464 86.480119 
L 221.8752 86.989763 
L 218.304 87.644156 
L 214.7328 88.442653 
L 211.1616 89.384466 
L 207.5904 90.468665 
L 204.0192 91.694182 
L 200.448 93.059805 
L 196.8768 94.564187 
L 193.3056 96.205844 
L 189.7344 97.983156 
L 186.1632 99.894369 
L 182.592 101.937595 
L 179.0208 104.11082 
L 175.4496 106.411899 
L 171.8784 108.838559 
L 168.3072 111.388408 
L 164.736 114.058928 
L 161.1648 116.847483 
L 157.5936 119.751322 
L 154.0224 122.767579 
L 150.4512 125.893278 
L 146.88 129.125333 
L 143.3088 132.460556 
L 139.7376 135.895654 
L 136.1664 139.427237 
L 132.5952 143.051821 
L 129.024 146.765828 
L 125.4528 150.565593 
L 121.8816 154.447367 
L 118.3104 158.407317 
L 114.7392 162.441537 
L 111.168 166.546045 
L 107.5968 170.71679 
L 104.0256 174.949656 
L 100.4544 179.240466 
L 96.8832 183.584986 
L 93.312 187.978928 
L 89.7408 192.417955 
L 86.1696 196.897687 
L 82.5984 201.413703 
L 79.0272 205.961546 
L 75.456 210.536729 
L 71.8848 215.134735 
L 68.3136 219.751027 
L 64.7424 224.38105 
L 61.1712 229.020233 
L 57.6 233.664 
z
" clip-path="url(#pec01440535)" style="fill: #f2cc86"/>
   </g>
   <g id="matplotlib.axis_1">
    <g id="xtick_1">
     <g id="line2d_1">
      <defs>
       <path id="m0e1e5ce943" d="M 0 0 
L 0 3.5 
" style="stroke: #000000; stroke-width: 0.8"/>
      </defs>
      <g>
       <use xlink:href="#m0e1e5ce943" x="57.6" y="307.584" style="stroke: #000000; stroke-width: 0.8"/>
      </g>
     </g>
     <g id="text_1">
      <!-- $0$ -->
      <g transform="translate(54.4 322.182437) scale(0.1 -0.1)">
       <defs>
        <path id="DejaVuSans-30" d="M 2034 4250 
Q 1547 4250 1301 3770 
Q 1056 3291 1056 2328 
Q 1056 1369 1301 889 
Q 1547 409 2034 409 
Q 2525 409 2770 889 
Q 3016 1369 3016 2328 
Q 3016 3291 2770 3770 
Q 2525 4250 2034 4250 
z
M 2034 4750 
Q 2819 4750 3233 4129 
Q 3647 3509 3647 2328 
Q 3647 1150 3233 529 
Q 2819 -91 2034 -91 
Q 1250 -91 836 529 
Q 422 1150 422 2328 
Q 422 3509 836 4129 
Q 1250 4750 2034 4750 
z
" transform="scale(0.015625)"/>
       </defs>
       <use xlink:href="#DejaVuSans-30" transform="translate(0 0.78125)"/>
      </g>
     </g>
    </g>
    <g id="xtick_2">
     <g id="line2d_2">
      <g>
       <use xlink:href="#m0e1e5ce943" x="146.88" y="307.584" style="stroke: #000000; stroke-width: 0.8"/>
      </g>
     </g>
     <g id="text_2">
      <!-- $\pi/4$ -->
      <g transform="translate(138.98 322.182437) scale(0.1 -0.1)">
       <defs>
        <path id="DejaVuSans-Oblique-3c0" d="M 584 3500 
L 3938 3500 
L 3825 2925 
L 3384 2925 
L 2966 775 
Q 2922 550 2981 450 
Q 3038 353 3209 353 
Q 3256 353 3325 363 
Q 3397 369 3419 372 
L 3338 -44 
Q 3222 -84 3103 -103 
Q 2981 -122 2866 -122 
Q 2491 -122 2388 81 
Q 2284 288 2391 838 
L 2797 2925 
L 1506 2925 
L 938 0 
L 350 0 
L 919 2925 
L 472 2925 
L 584 3500 
z
" transform="scale(0.015625)"/>
        <path id="DejaVuSans-2f" d="M 1625 4666 
L 2156 4666 
L 531 -594 
L 0 -594 
L 1625 4666 
z
" transform="scale(0.015625)"/>
        <path id="DejaVuSans-34" d="M 2419 4116 
L 825 1625 
L 2419 1625 
L 2419 4116 
z
M 2253 4666 
L 3047 4666 
L 3047 1625 
L 3713 1625 
L 3713 1100 
L 3047 1100 
L 3047 0 
L 2419 0 
L 2419 1100 
L 313 1100 
L 313 1709 
L 2253 4666 
z
" transform="scale(0.015625)"/>
       </defs>
       <use xlink:href="#DejaVuSans-Oblique-3c0" transform="translate(0 0.09375)"/>
       <use xlink:href="#DejaVuSans-2f" transform="translate(60.205078 0.09375)"/>
       <use xlink:href="#DejaVuSans-34" transform="translate(93.896484 0.09375)"/>
      </g>
     </g>
    </g>
    <g id="xtick_3">
     <g id="line2d_3">
      <g>
       <use xlink:href="#m0e1e5ce943" x="236.16" y="307.584" style="stroke: #000000; stroke-width: 0.8"/>
      </g>
     </g>
     <g id="text_3">
      <!-- $\pi/2$ -->
      <g transform="translate(228.46 322.182437) scale(0.1 -0.1)">
       <defs>
        <path id="DejaVuSans-32" d="M 1228 531 
L 3431 531 
L 3431 0 
L 469 0 
L 469 531 
Q 828 903 1448 1529 
Q 2069 2156 2228 2338 
Q 2531 2678 2651 2914 
Q 2772 3150 2772 3378 
Q 2772 3750 2511 3984 
Q 2250 4219 1831 4219 
Q 1534 4219 1204 4116 
Q 875 4013 500 3803 
L 500 4441 
Q 881 4594 1212 4672 
Q 1544 4750 1819 4750 
Q 2544 4750 2975 4387 
Q 3406 4025 3406 3419 
Q 3406 3131 3298 2873 
Q 3191 2616 2906 2266 
Q 2828 2175 2409 1742 
Q 1991 1309 1228 531 
z
" transform="scale(0.015625)"/>
       </defs>
       <use xlink:href="#DejaVuSans-Oblique-3c0" transform="translate(0 0.78125)"/>
       <use xlink:href="#DejaVuSans-2f" transform="translate(60.205078 0.78125)"/>
       <use xlink:href="#DejaVuSans-32" transform="translate(90.271484 0.78125)"/>
      </g>
     </g>
    </g>
    <g id="xtick_4">
     <g id="line2d_4">
      <g>
       <use xlink:href="#m0e1e5ce943" x="325.44" y="307.584" style="stroke: #000000; stroke-width: 0.8"/>
      </g>
     </g>
     <g id="text_4">
      <!-- $3\pi/4$ -->
      <g transform="translate(314.34 322.182437) scale(0.1 -0.1)">
       <defs>
        <path id="DejaVuSans-33" d="M 2597 2516 
Q 3050 2419 3304 2112 
Q 3559 1806 3559 1356 
Q 3559 666 3084 287 
Q 2609 -91 1734 -91 
Q 1441 -91 1130 -33 
Q 819 25 488 141 
L 488 750 
Q 750 597 1062 519 
Q 1375 441 1716 441 
Q 2309 441 2620 675 
Q 2931 909 2931 1356 
Q 2931 1769 2642 2001 
Q 2353 2234 1838 2234 
L 1294 2234 
L 1294 2753 
L 1863 2753 
Q 2328 2753 2575 2939 
Q 2822 3125 2822 3475 
Q 2822 3834 2567 4026 
Q 2313 4219 1838 4219 
Q 1578 4219 1281 4162 
Q 984 4106 628 3988 
L 628 4550 
Q 988 4650 1302 4700 
Q 1616 4750 1894 4750 
Q 2613 4750 3031 4423 
Q 3450 4097 3450 3541 
Q 3450 3153 3228 2886 
Q 3006 2619 2597 2516 
z
" transform="scale(0.015625)"/>
       </defs>
       <use xlink:href="#DejaVuSans-33" transform="translate(0 0.78125)"/>
       <use xlink:href="#DejaVuSans-Oblique-3c0" transform="translate(63.623047 0.78125)"/>
       <use xlink:href="#DejaVuSans-2f" transform="translate(123.828125 0.78125)"/>
       <use xlink:href="#DejaVuSans-34" transform="translate(157.519531 0.78125)"/>
      </g>
     </g>
    </g>
    <g id="xtick_5">
     <g id="line2d_5">
      <g>
       <use xlink:href="#m0e1e5ce943" x="414.72" y="307.584" style="stroke: #000000; stroke-width: 0.8"/>
      </g>
     </g>
     <g id="text_5">
      <!-- $\pi$ -->
      <g transform="translate(411.67 322.182437) scale(0.1 -0.1)">
       <use xlink:href="#DejaVuSans-Oblique-3c0" transform="translate(0 0.3125)"/>
      </g>
     </g>
    </g>
    <g id="text_6">
     <!-- RZZGate rotation angle $\theta$ -->
     <g transform="translate(172.41 335.962125) scale(0.1 -0.1)">
      <defs>
       <path id="DejaVuSans-52" d="M 2841 2188 
Q 3044 2119 3236 1894 
Q 3428 1669 3622 1275 
L 4263 0 
L 3584 0 
L 2988 1197 
Q 2756 1666 2539 1819 
Q 2322 1972 1947 1972 
L 1259 1972 
L 1259 0 
L 628 0 
L 628 4666 
L 2053 4666 
Q 2853 4666 3247 4331 
Q 3641 3997 3641 3322 
Q 3641 2881 3436 2590 
Q 3231 2300 2841 2188 
z
M 1259 4147 
L 1259 2491 
L 2053 2491 
Q 2509 2491 2742 2702 
Q 2975 2913 2975 3322 
Q 2975 3731 2742 3939 
Q 2509 4147 2053 4147 
L 1259 4147 
z
" transform="scale(0.015625)"/>
       <path id="DejaVuSans-5a" d="M 359 4666 
L 4025 4666 
L 4025 4184 
L 1075 531 
L 4097 531 
L 4097 0 
L 288 0 
L 288 481 
L 3238 4134 
L 359 4134 
L 359 4666 
z
" transform="scale(0.015625)"/>
       <path id="DejaVuSans-47" d="M 3809 666 
L 3809 1919 
L 2778 1919 
L 2778 2438 
L 4434 2438 
L 4434 434 
Q 4069 175 3628 42 
Q 3188 -91 2688 -91 
Q 1594 -91 976 548 
Q 359 1188 359 2328 
Q 359 3472 976 4111 
Q 1594 4750 2688 4750 
Q 3144 4750 3555 4637 
Q 3966 4525 4313 4306 
L 4313 3634 
Q 3963 3931 3569 4081 
Q 3175 4231 2741 4231 
Q 1884 4231 1454 3753 
Q 1025 3275 1025 2328 
Q 1025 1384 1454 906 
Q 1884 428 2741 428 
Q 3075 428 3337 486 
Q 3600 544 3809 666 
z
" transform="scale(0.015625)"/>
       <path id="DejaVuSans-61" d="M 2194 1759 
Q 1497 1759 1228 1600 
Q 959 1441 959 1056 
Q 959 750 1161 570 
Q 1363 391 1709 391 
Q 2188 391 2477 730 
Q 2766 1069 2766 1631 
L 2766 1759 
L 2194 1759 
z
M 3341 1997 
L 3341 0 
L 2766 0 
L 2766 531 
Q 2569 213 2275 61 
Q 1981 -91 1556 -91 
Q 1019 -91 701 211 
Q 384 513 384 1019 
Q 384 1609 779 1909 
Q 1175 2209 1959 2209 
L 2766 2209 
L 2766 2266 
Q 2766 2663 2505 2880 
Q 2244 3097 1772 3097 
Q 1472 3097 1187 3025 
Q 903 2953 641 2809 
L 641 3341 
Q 956 3463 1253 3523 
Q 1550 3584 1831 3584 
Q 2591 3584 2966 3190 
Q 3341 2797 3341 1997 
z
" transform="scale(0.015625)"/>
       <path id="DejaVuSans-74" d="M 1172 4494 
L 1172 3500 
L 2356 3500 
L 2356 3053 
L 1172 3053 
L 1172 1153 
Q 1172 725 1289 603 
Q 1406 481 1766 481 
L 2356 481 
L 2356 0 
L 1766 0 
Q 1100 0 847 248 
Q 594 497 594 1153 
L 594 3053 
L 172 3053 
L 172 3500 
L 594 3500 
L 594 4494 
L 1172 4494 
z
" transform="scale(0.015625)"/>
       <path id="DejaVuSans-65" d="M 3597 1894 
L 3597 1613 
L 953 1613 
Q 991 1019 1311 708 
Q 1631 397 2203 397 
Q 2534 397 2845 478 
Q 3156 559 3463 722 
L 3463 178 
Q 3153 47 2828 -22 
Q 2503 -91 2169 -91 
Q 1331 -91 842 396 
Q 353 884 353 1716 
Q 353 2575 817 3079 
Q 1281 3584 2069 3584 
Q 2775 3584 3186 3129 
Q 3597 2675 3597 1894 
z
M 3022 2063 
Q 3016 2534 2758 2815 
Q 2500 3097 2075 3097 
Q 1594 3097 1305 2825 
Q 1016 2553 972 2059 
L 3022 2063 
z
" transform="scale(0.015625)"/>
       <path id="DejaVuSans-20" transform="scale(0.015625)"/>
       <path id="DejaVuSans-72" d="M 2631 2963 
Q 2534 3019 2420 3045 
Q 2306 3072 2169 3072 
Q 1681 3072 1420 2755 
Q 1159 2438 1159 1844 
L 1159 0 
L 581 0 
L 581 3500 
L 1159 3500 
L 1159 2956 
Q 1341 3275 1631 3429 
Q 1922 3584 2338 3584 
Q 2397 3584 2469 3576 
Q 2541 3569 2628 3553 
L 2631 2963 
z
" transform="scale(0.015625)"/>
       <path id="DejaVuSans-6f" d="M 1959 3097 
Q 1497 3097 1228 2736 
Q 959 2375 959 1747 
Q 959 1119 1226 758 
Q 1494 397 1959 397 
Q 2419 397 2687 759 
Q 2956 1122 2956 1747 
Q 2956 2369 2687 2733 
Q 2419 3097 1959 3097 
z
M 1959 3584 
Q 2709 3584 3137 3096 
Q 3566 2609 3566 1747 
Q 3566 888 3137 398 
Q 2709 -91 1959 -91 
Q 1206 -91 779 398 
Q 353 888 353 1747 
Q 353 2609 779 3096 
Q 1206 3584 1959 3584 
z
" transform="scale(0.015625)"/>
       <path id="DejaVuSans-69" d="M 603 3500 
L 1178 3500 
L 1178 0 
L 603 0 
L 603 3500 
z
M 603 4863 
L 1178 4863 
L 1178 4134 
L 603 4134 
L 603 4863 
z
" transform="scale(0.015625)"/>
       <path id="DejaVuSans-6e" d="M 3513 2113 
L 3513 0 
L 2938 0 
L 2938 2094 
Q 2938 2591 2744 2837 
Q 2550 3084 2163 3084 
Q 1697 3084 1428 2787 
Q 1159 2491 1159 1978 
L 1159 0 
L 581 0 
L 581 3500 
L 1159 3500 
L 1159 2956 
Q 1366 3272 1645 3428 
Q 1925 3584 2291 3584 
Q 2894 3584 3203 3211 
Q 3513 2838 3513 2113 
z
" transform="scale(0.015625)"/>
       <path id="DejaVuSans-67" d="M 2906 1791 
Q 2906 2416 2648 2759 
Q 2391 3103 1925 3103 
Q 1463 3103 1205 2759 
Q 947 2416 947 1791 
Q 947 1169 1205 825 
Q 1463 481 1925 481 
Q 2391 481 2648 825 
Q 2906 1169 2906 1791 
z
M 3481 434 
Q 3481 -459 3084 -895 
Q 2688 -1331 1869 -1331 
Q 1566 -1331 1297 -1286 
Q 1028 -1241 775 -1147 
L 775 -588 
Q 1028 -725 1275 -790 
Q 1522 -856 1778 -856 
Q 2344 -856 2625 -561 
Q 2906 -266 2906 331 
L 2906 616 
Q 2728 306 2450 153 
Q 2172 0 1784 0 
Q 1141 0 747 490 
Q 353 981 353 1791 
Q 353 2603 747 3093 
Q 1141 3584 1784 3584 
Q 2172 3584 2450 3431 
Q 2728 3278 2906 2969 
L 2906 3500 
L 3481 3500 
L 3481 434 
z
" transform="scale(0.015625)"/>
       <path id="DejaVuSans-6c" d="M 603 4863 
L 1178 4863 
L 1178 0 
L 603 0 
L 603 4863 
z
" transform="scale(0.015625)"/>
       <path id="DejaVuSans-Oblique-3b8" d="M 2913 2219 
L 925 2219 
Q 791 1284 928 888 
Q 1100 400 1566 400 
Q 2034 400 2391 891 
Q 2703 1322 2913 2219 
z
M 3009 2750 
Q 3094 3638 2984 3950 
Q 2813 4444 2353 4444 
Q 1875 4444 1525 3956 
Q 1250 3563 1034 2750 
L 3009 2750 
z
M 2444 4913 
Q 3194 4913 3494 4250 
Q 3794 3591 3566 2422 
Q 3341 1256 2781 594 
Q 2225 -72 1475 -72 
Q 722 -72 425 594 
Q 128 1256 353 2422 
Q 581 3591 1134 4250 
Q 1691 4913 2444 4913 
z
" transform="scale(0.015625)"/>
      </defs>
      <use xlink:href="#DejaVuSans-52" transform="translate(0 0.234375)"/>
      <use xlink:href="#DejaVuSans-5a" transform="translate(69.482422 0.234375)"/>
      <use xlink:href="#DejaVuSans-5a" transform="translate(137.988281 0.234375)"/>
      <use xlink:href="#DejaVuSans-47" transform="translate(206.494141 0.234375)"/>
      <use xlink:href="#DejaVuSans-61" transform="translate(283.984375 0.234375)"/>
      <use xlink:href="#DejaVuSans-74" transform="translate(345.263672 0.234375)"/>
      <use xlink:href="#DejaVuSans-65" transform="translate(384.472656 0.234375)"/>
      <use xlink:href="#DejaVuSans-20" transform="translate(445.996094 0.234375)"/>
      <use xlink:href="#DejaVuSans-72" transform="translate(477.783203 0.234375)"/>
      <use xlink:href="#DejaVuSans-6f" transform="translate(518.896484 0.234375)"/>
      <use xlink:href="#DejaVuSans-74" transform="translate(580.078125 0.234375)"/>
      <use xlink:href="#DejaVuSans-61" transform="translate(619.287109 0.234375)"/>
      <use xlink:href="#DejaVuSans-74" transform="translate(680.566406 0.234375)"/>
      <use xlink:href="#DejaVuSans-69" transform="translate(719.775391 0.234375)"/>
      <use xlink:href="#DejaVuSans-6f" transform="translate(747.558594 0.234375)"/>
      <use xlink:href="#DejaVuSans-6e" transform="translate(808.740234 0.234375)"/>
      <use xlink:href="#DejaVuSans-20" transform="translate(872.119141 0.234375)"/>
      <use xlink:href="#DejaVuSans-61" transform="translate(903.90625 0.234375)"/>
      <use xlink:href="#DejaVuSans-6e" transform="translate(965.185547 0.234375)"/>
      <use xlink:href="#DejaVuSans-67" transform="translate(1028.564453 0.234375)"/>
      <use xlink:href="#DejaVuSans-6c" transform="translate(1092.041016 0.234375)"/>
      <use xlink:href="#DejaVuSans-65" transform="translate(1119.824219 0.234375)"/>
      <use xlink:href="#DejaVuSans-20" transform="translate(1181.347656 0.234375)"/>
      <use xlink:href="#DejaVuSans-Oblique-3b8" transform="translate(1213.134766 0.234375)"/>
     </g>
    </g>
   </g>
   <g id="matplotlib.axis_2">
    <g id="ytick_1">
     <g id="line2d_6">
      <defs>
       <path id="m8219da9cc4" d="M 0 0 
L -3.5 0 
" style="stroke: #000000; stroke-width: 0.8"/>
      </defs>
      <g>
       <use xlink:href="#m8219da9cc4" x="57.6" y="307.584" style="stroke: #000000; stroke-width: 0.8"/>
      </g>
     </g>
     <g id="text_7">
      <!-- 0.0 -->
      <g transform="translate(34.696875 311.383219) scale(0.1 -0.1)">
       <defs>
        <path id="DejaVuSans-2e" d="M 684 794 
L 1344 794 
L 1344 0 
L 684 0 
L 684 794 
z
" transform="scale(0.015625)"/>
       </defs>
       <use xlink:href="#DejaVuSans-30"/>
       <use xlink:href="#DejaVuSans-2e" x="63.623047"/>
       <use xlink:href="#DejaVuSans-30" x="95.410156"/>
      </g>
     </g>
    </g>
    <g id="ytick_2">
     <g id="line2d_7">
      <g>
       <use xlink:href="#m8219da9cc4" x="57.6" y="270.624" style="stroke: #000000; stroke-width: 0.8"/>
      </g>
     </g>
     <g id="text_8">
      <!-- 0.5 -->
      <g transform="translate(34.696875 274.423219) scale(0.1 -0.1)">
       <defs>
        <path id="DejaVuSans-35" d="M 691 4666 
L 3169 4666 
L 3169 4134 
L 1269 4134 
L 1269 2991 
Q 1406 3038 1543 3061 
Q 1681 3084 1819 3084 
Q 2600 3084 3056 2656 
Q 3513 2228 3513 1497 
Q 3513 744 3044 326 
Q 2575 -91 1722 -91 
Q 1428 -91 1123 -41 
Q 819 9 494 109 
L 494 744 
Q 775 591 1075 516 
Q 1375 441 1709 441 
Q 2250 441 2565 725 
Q 2881 1009 2881 1497 
Q 2881 1984 2565 2268 
Q 2250 2553 1709 2553 
Q 1456 2553 1204 2497 
Q 953 2441 691 2322 
L 691 4666 
z
" transform="scale(0.015625)"/>
       </defs>
       <use xlink:href="#DejaVuSans-30"/>
       <use xlink:href="#DejaVuSans-2e" x="63.623047"/>
       <use xlink:href="#DejaVuSans-35" x="95.410156"/>
      </g>
     </g>
    </g>
    <g id="ytick_3">
     <g id="line2d_8">
      <g>
       <use xlink:href="#m8219da9cc4" x="57.6" y="233.664" style="stroke: #000000; stroke-width: 0.8"/>
      </g>
     </g>
     <g id="text_9">
      <!-- 1.0 -->
      <g transform="translate(34.696875 237.463219) scale(0.1 -0.1)">
       <defs>
        <path id="DejaVuSans-31" d="M 794 531 
L 1825 531 
L 1825 4091 
L 703 3866 
L 703 4441 
L 1819 4666 
L 2450 4666 
L 2450 531 
L 3481 531 
L 3481 0 
L 794 0 
L 794 531 
z
" transform="scale(0.015625)"/>
       </defs>
       <use xlink:href="#DejaVuSans-31"/>
       <use xlink:href="#DejaVuSans-2e" x="63.623047"/>
       <use xlink:href="#DejaVuSans-30" x="95.410156"/>
      </g>
     </g>
    </g>
    <g id="ytick_4">
     <g id="line2d_9">
      <g>
       <use xlink:href="#m8219da9cc4" x="57.6" y="196.704" style="stroke: #000000; stroke-width: 0.8"/>
      </g>
     </g>
     <g id="text_10">
      <!-- 1.5 -->
      <g transform="translate(34.696875 200.503219) scale(0.1 -0.1)">
       <use xlink:href="#DejaVuSans-31"/>
       <use xlink:href="#DejaVuSans-2e" x="63.623047"/>
       <use xlink:href="#DejaVuSans-35" x="95.410156"/>
      </g>
     </g>
    </g>
    <g id="ytick_5">
     <g id="line2d_10">
      <g>
       <use xlink:href="#m8219da9cc4" x="57.6" y="159.744" style="stroke: #000000; stroke-width: 0.8"/>
      </g>
     </g>
     <g id="text_11">
      <!-- 2.0 -->
      <g transform="translate(34.696875 163.543219) scale(0.1 -0.1)">
       <use xlink:href="#DejaVuSans-32"/>
       <use xlink:href="#DejaVuSans-2e" x="63.623047"/>
       <use xlink:href="#DejaVuSans-30" x="95.410156"/>
      </g>
     </g>
    </g>
    <g id="ytick_6">
     <g id="line2d_11">
      <g>
       <use xlink:href="#m8219da9cc4" x="57.6" y="122.784" style="stroke: #000000; stroke-width: 0.8"/>
      </g>
     </g>
     <g id="text_12">
      <!-- 2.5 -->
      <g transform="translate(34.696875 126.583219) scale(0.1 -0.1)">
       <use xlink:href="#DejaVuSans-32"/>
       <use xlink:href="#DejaVuSans-2e" x="63.623047"/>
       <use xlink:href="#DejaVuSans-35" x="95.410156"/>
      </g>
     </g>
    </g>
    <g id="ytick_7">
     <g id="line2d_12">
      <g>
       <use xlink:href="#m8219da9cc4" x="57.6" y="85.824" style="stroke: #000000; stroke-width: 0.8"/>
      </g>
     </g>
     <g id="text_13">
      <!-- 3.0 -->
      <g transform="translate(34.696875 89.623219) scale(0.1 -0.1)">
       <use xlink:href="#DejaVuSans-33"/>
       <use xlink:href="#DejaVuSans-2e" x="63.623047"/>
       <use xlink:href="#DejaVuSans-30" x="95.410156"/>
      </g>
     </g>
    </g>
    <g id="ytick_8">
     <g id="line2d_13">
      <g>
       <use xlink:href="#m8219da9cc4" x="57.6" y="48.864" style="stroke: #000000; stroke-width: 0.8"/>
      </g>
     </g>
     <g id="text_14">
      <!-- 3.5 -->
      <g transform="translate(34.696875 52.663219) scale(0.1 -0.1)">
       <use xlink:href="#DejaVuSans-33"/>
       <use xlink:href="#DejaVuSans-2e" x="63.623047"/>
       <use xlink:href="#DejaVuSans-35" x="95.410156"/>
      </g>
     </g>
    </g>
    <g id="text_15">
     <!-- Absolute coefficients, stacked (sum = $\gamma$) -->
     <g transform="translate(28.596875 275.928) rotate(-90) scale(0.1 -0.1)">
      <defs>
       <path id="DejaVuSans-41" d="M 2188 4044 
L 1331 1722 
L 3047 1722 
L 2188 4044 
z
M 1831 4666 
L 2547 4666 
L 4325 0 
L 3669 0 
L 3244 1197 
L 1141 1197 
L 716 0 
L 50 0 
L 1831 4666 
z
" transform="scale(0.015625)"/>
       <path id="DejaVuSans-62" d="M 3116 1747 
Q 3116 2381 2855 2742 
Q 2594 3103 2138 3103 
Q 1681 3103 1420 2742 
Q 1159 2381 1159 1747 
Q 1159 1113 1420 752 
Q 1681 391 2138 391 
Q 2594 391 2855 752 
Q 3116 1113 3116 1747 
z
M 1159 2969 
Q 1341 3281 1617 3432 
Q 1894 3584 2278 3584 
Q 2916 3584 3314 3078 
Q 3713 2572 3713 1747 
Q 3713 922 3314 415 
Q 2916 -91 2278 -91 
Q 1894 -91 1617 61 
Q 1341 213 1159 525 
L 1159 0 
L 581 0 
L 581 4863 
L 1159 4863 
L 1159 2969 
z
" transform="scale(0.015625)"/>
       <path id="DejaVuSans-73" d="M 2834 3397 
L 2834 2853 
Q 2591 2978 2328 3040 
Q 2066 3103 1784 3103 
Q 1356 3103 1142 2972 
Q 928 2841 928 2578 
Q 928 2378 1081 2264 
Q 1234 2150 1697 2047 
L 1894 2003 
Q 2506 1872 2764 1633 
Q 3022 1394 3022 966 
Q 3022 478 2636 193 
Q 2250 -91 1575 -91 
Q 1294 -91 989 -36 
Q 684 19 347 128 
L 347 722 
Q 666 556 975 473 
Q 1284 391 1588 391 
Q 1994 391 2212 530 
Q 2431 669 2431 922 
Q 2431 1156 2273 1281 
Q 2116 1406 1581 1522 
L 1381 1569 
Q 847 1681 609 1914 
Q 372 2147 372 2553 
Q 372 3047 722 3315 
Q 1072 3584 1716 3584 
Q 2034 3584 2315 3537 
Q 2597 3491 2834 3397 
z
" transform="scale(0.015625)"/>
       <path id="DejaVuSans-75" d="M 544 1381 
L 544 3500 
L 1119 3500 
L 1119 1403 
Q 1119 906 1312 657 
Q 1506 409 1894 409 
Q 2359 409 2629 706 
Q 2900 1003 2900 1516 
L 2900 3500 
L 3475 3500 
L 3475 0 
L 2900 0 
L 2900 538 
Q 2691 219 2414 64 
Q 2138 -91 1772 -91 
Q 1169 -91 856 284 
Q 544 659 544 1381 
z
M 1991 3584 
L 1991 3584 
z
" transform="scale(0.015625)"/>
       <path id="DejaVuSans-63" d="M 3122 3366 
L 3122 2828 
Q 2878 2963 2633 3030 
Q 2388 3097 2138 3097 
Q 1578 3097 1268 2742 
Q 959 2388 959 1747 
Q 959 1106 1268 751 
Q 1578 397 2138 397 
Q 2388 397 2633 464 
Q 2878 531 3122 666 
L 3122 134 
Q 2881 22 2623 -34 
Q 2366 -91 2075 -91 
Q 1284 -91 818 406 
Q 353 903 353 1747 
Q 353 2603 823 3093 
Q 1294 3584 2113 3584 
Q 2378 3584 2631 3529 
Q 2884 3475 3122 3366 
z
" transform="scale(0.015625)"/>
       <path id="DejaVuSans-66" d="M 2375 4863 
L 2375 4384 
L 1825 4384 
Q 1516 4384 1395 4259 
Q 1275 4134 1275 3809 
L 1275 3500 
L 2222 3500 
L 2222 3053 
L 1275 3053 
L 1275 0 
L 697 0 
L 697 3053 
L 147 3053 
L 147 3500 
L 697 3500 
L 697 3744 
Q 697 4328 969 4595 
Q 1241 4863 1831 4863 
L 2375 4863 
z
" transform="scale(0.015625)"/>
       <path id="DejaVuSans-2c" d="M 750 794 
L 1409 794 
L 1409 256 
L 897 -744 
L 494 -744 
L 750 256 
L 750 794 
z
" transform="scale(0.015625)"/>
       <path id="DejaVuSans-6b" d="M 581 4863 
L 1159 4863 
L 1159 1991 
L 2875 3500 
L 3609 3500 
L 1753 1863 
L 3688 0 
L 2938 0 
L 1159 1709 
L 1159 0 
L 581 0 
L 581 4863 
z
" transform="scale(0.015625)"/>
       <path id="DejaVuSans-64" d="M 2906 2969 
L 2906 4863 
L 3481 4863 
L 3481 0 
L 2906 0 
L 2906 525 
Q 2725 213 2448 61 
Q 2172 -91 1784 -91 
Q 1150 -91 751 415 
Q 353 922 353 1747 
Q 353 2572 751 3078 
Q 1150 3584 1784 3584 
Q 2172 3584 2448 3432 
Q 2725 3281 2906 2969 
z
M 947 1747 
Q 947 1113 1208 752 
Q 1469 391 1925 391 
Q 2381 391 2643 752 
Q 2906 1113 2906 1747 
Q 2906 2381 2643 2742 
Q 2381 3103 1925 3103 
Q 1469 3103 1208 2742 
Q 947 2381 947 1747 
z
" transform="scale(0.015625)"/>
       <path id="DejaVuSans-28" d="M 1984 4856 
Q 1566 4138 1362 3434 
Q 1159 2731 1159 2009 
Q 1159 1288 1364 580 
Q 1569 -128 1984 -844 
L 1484 -844 
Q 1016 -109 783 600 
Q 550 1309 550 2009 
Q 550 2706 781 3412 
Q 1013 4119 1484 4856 
L 1984 4856 
z
" transform="scale(0.015625)"/>
       <path id="DejaVuSans-6d" d="M 3328 2828 
Q 3544 3216 3844 3400 
Q 4144 3584 4550 3584 
Q 5097 3584 5394 3201 
Q 5691 2819 5691 2113 
L 5691 0 
L 5113 0 
L 5113 2094 
Q 5113 2597 4934 2840 
Q 4756 3084 4391 3084 
Q 3944 3084 3684 2787 
Q 3425 2491 3425 1978 
L 3425 0 
L 2847 0 
L 2847 2094 
Q 2847 2600 2669 2842 
Q 2491 3084 2119 3084 
Q 1678 3084 1418 2786 
Q 1159 2488 1159 1978 
L 1159 0 
L 581 0 
L 581 3500 
L 1159 3500 
L 1159 2956 
Q 1356 3278 1631 3431 
Q 1906 3584 2284 3584 
Q 2666 3584 2933 3390 
Q 3200 3197 3328 2828 
z
" transform="scale(0.015625)"/>
       <path id="DejaVuSans-3d" d="M 678 2906 
L 4684 2906 
L 4684 2381 
L 678 2381 
L 678 2906 
z
M 678 1631 
L 4684 1631 
L 4684 1100 
L 678 1100 
L 678 1631 
z
" transform="scale(0.015625)"/>
       <path id="DejaVuSans-Oblique-3b3" d="M 1491 2950 
L 1838 788 
L 3456 3500 
L 4066 3500 
L 1972 0 
L 1713 -1331 
L 1138 -1331 
L 1397 0 
L 988 2613 
Q 925 3006 628 3006 
L 475 3006 
L 569 3500 
L 788 3500 
Q 1403 3500 1491 2950 
z
" transform="scale(0.015625)"/>
       <path id="DejaVuSans-29" d="M 513 4856 
L 1013 4856 
Q 1481 4119 1714 3412 
Q 1947 2706 1947 2009 
Q 1947 1309 1714 600 
Q 1481 -109 1013 -844 
L 513 -844 
Q 928 -128 1133 580 
Q 1338 1288 1338 2009 
Q 1338 2731 1133 3434 
Q 928 4138 513 4856 
z
" transform="scale(0.015625)"/>
      </defs>
      <use xlink:href="#DejaVuSans-41" transform="translate(0 0.015625)"/>
      <use xlink:href="#DejaVuSans-62" transform="translate(68.408203 0.015625)"/>
      <use xlink:href="#DejaVuSans-73" transform="translate(131.884766 0.015625)"/>
      <use xlink:href="#DejaVuSans-6f" transform="translate(183.984375 0.015625)"/>
      <use xlink:href="#DejaVuSans-6c" transform="translate(245.166016 0.015625)"/>
      <use xlink:href="#DejaVuSans-75" transform="translate(272.949219 0.015625)"/>
      <use xlink:href="#DejaVuSans-74" transform="translate(336.328125 0.015625)"/>
      <use xlink:href="#DejaVuSans-65" transform="translate(375.537109 0.015625)"/>
      <use xlink:href="#DejaVuSans-20" transform="translate(437.060547 0.015625)"/>
      <use xlink:href="#DejaVuSans-63" transform="translate(468.847656 0.015625)"/>
      <use xlink:href="#DejaVuSans-6f" transform="translate(523.828125 0.015625)"/>
      <use xlink:href="#DejaVuSans-65" transform="translate(585.009766 0.015625)"/>
      <use xlink:href="#DejaVuSans-66" transform="translate(646.533203 0.015625)"/>
      <use xlink:href="#DejaVuSans-66" transform="translate(681.738281 0.015625)"/>
      <use xlink:href="#DejaVuSans-69" transform="translate(716.943359 0.015625)"/>
      <use xlink:href="#DejaVuSans-63" transform="translate(744.726562 0.015625)"/>
      <use xlink:href="#DejaVuSans-69" transform="translate(799.707031 0.015625)"/>
      <use xlink:href="#DejaVuSans-65" transform="translate(827.490234 0.015625)"/>
      <use xlink:href="#DejaVuSans-6e" transform="translate(889.013672 0.015625)"/>
      <use xlink:href="#DejaVuSans-74" transform="translate(952.392578 0.015625)"/>
      <use xlink:href="#DejaVuSans-73" transform="translate(991.601562 0.015625)"/>
      <use xlink:href="#DejaVuSans-2c" transform="translate(1043.701172 0.015625)"/>
      <use xlink:href="#DejaVuSans-20" transform="translate(1075.488281 0.015625)"/>
      <use xlink:href="#DejaVuSans-73" transform="translate(1107.275391 0.015625)"/>
      <use xlink:href="#DejaVuSans-74" transform="translate(1159.375 0.015625)"/>
      <use xlink:href="#DejaVuSans-61" transform="translate(1198.583984 0.015625)"/>
      <use xlink:href="#DejaVuSans-63" transform="translate(1259.863281 0.015625)"/>
      <use xlink:href="#DejaVuSans-6b" transform="translate(1314.84375 0.015625)"/>
      <use xlink:href="#DejaVuSans-65" transform="translate(1372.753906 0.015625)"/>
      <use xlink:href="#DejaVuSans-64" transform="translate(1434.277344 0.015625)"/>
      <use xlink:href="#DejaVuSans-20" transform="translate(1497.753906 0.015625)"/>
      <use xlink:href="#DejaVuSans-28" transform="translate(1529.541016 0.015625)"/>
      <use xlink:href="#DejaVuSans-73" transform="translate(1568.554688 0.015625)"/>
      <use xlink:href="#DejaVuSans-75" transform="translate(1620.654297 0.015625)"/>
      <use xlink:href="#DejaVuSans-6d" transform="translate(1684.033203 0.015625)"/>
      <use xlink:href="#DejaVuSans-20" transform="translate(1781.445312 0.015625)"/>
      <use xlink:href="#DejaVuSans-3d" transform="translate(1813.232422 0.015625)"/>
      <use xlink:href="#DejaVuSans-20" transform="translate(1897.021484 0.015625)"/>
      <use xlink:href="#DejaVuSans-Oblique-3b3" transform="translate(1928.808594 0.015625)"/>
      <use xlink:href="#DejaVuSans-29" transform="translate(1987.988281 0.015625)"/>
     </g>
    </g>
   </g>
   <g id="line2d_14">
    <path d="M 236.16 307.584 
L 236.16 41.472 
" clip-path="url(#pec01440535)" style="fill: none; stroke-dasharray: 5.55,2.4; stroke-dashoffset: 0; stroke: #aaaaaa; stroke-width: 1.5"/>
   </g>
   <g id="line2d_15">
    <path d="M 146.88 307.584 
L 146.88 41.472 
" clip-path="url(#pec01440535)" style="fill: none; stroke-dasharray: 1.5,2.475; stroke-dashoffset: 0; stroke: #aaaaaa; stroke-width: 1.5"/>
   </g>
   <g id="line2d_16">
    <path d="M 57.6 233.664 
L 414.72 233.664 
" clip-path="url(#pec01440535)" style="fill: none; stroke: #aaaaaa; stroke-width: 1.5; stroke-linecap: square"/>
   </g>
   <g id="patch_3">
    <path d="M 57.6 307.584 
L 57.6 41.472 
" style="fill: none; stroke: #000000; stroke-width: 0.8; stroke-linejoin: miter; stroke-linecap: square"/>
   </g>
   <g id="patch_4">
    <path d="M 414.72 307.584 
L 414.72 41.472 
" style="fill: none; stroke: #000000; stroke-width: 0.8; stroke-linejoin: miter; stroke-linecap: square"/>
   </g>
   <g id="patch_5">
    <path d="M 57.6 307.584 
L 414.72 307.584 
" style="fill: none; stroke: #000000; stroke-width: 0.8; stroke-linejoin: miter; stroke-linecap: square"/>
   </g>
   <g id="patch_6">
    <path d="M 57.6 41.472 
L 414.72 41.472 
" style="fill: none; stroke: #000000; stroke-width: 0.8; stroke-linejoin: miter; stroke-linecap: square"/>
   </g>
   <g id="text_16">
    <!-- CXGate -->
    <g transform="translate(193.377187 64.626188) scale(0.1 -0.1)">
     <defs>
      <path id="DejaVuSans-43" d="M 4122 4306 
L 4122 3641 
Q 3803 3938 3442 4084 
Q 3081 4231 2675 4231 
Q 1875 4231 1450 3742 
Q 1025 3253 1025 2328 
Q 1025 1406 1450 917 
Q 1875 428 2675 428 
Q 3081 428 3442 575 
Q 3803 722 4122 1019 
L 4122 359 
Q 3791 134 3420 21 
Q 3050 -91 2638 -91 
Q 1578 -91 968 557 
Q 359 1206 359 2328 
Q 359 3453 968 4101 
Q 1578 4750 2638 4750 
Q 3056 4750 3426 4639 
Q 3797 4528 4122 4306 
z
" transform="scale(0.015625)"/>
      <path id="DejaVuSans-58" d="M 403 4666 
L 1081 4666 
L 2241 2931 
L 3406 4666 
L 4084 4666 
L 2584 2425 
L 4184 0 
L 3506 0 
L 2194 1984 
L 872 0 
L 191 0 
L 1856 2491 
L 403 4666 
z
" transform="scale(0.015625)"/>
     </defs>
     <use xlink:href="#DejaVuSans-43"/>
     <use xlink:href="#DejaVuSans-58" x="69.824219"/>
     <use xlink:href="#DejaVuSans-47" x="138.330078"/>
     <use xlink:href="#DejaVuSans-61" x="215.820312"/>
     <use xlink:href="#DejaVuSans-74" x="277.099609"/>
     <use xlink:href="#DejaVuSans-65" x="316.308594"/>
    </g>
    <!-- family -->
    <g transform="translate(200.295937 75.824) scale(0.1 -0.1)">
     <defs>
      <path id="DejaVuSans-79" d="M 2059 -325 
Q 1816 -950 1584 -1140 
Q 1353 -1331 966 -1331 
L 506 -1331 
L 506 -850 
L 844 -850 
Q 1081 -850 1212 -737 
Q 1344 -625 1503 -206 
L 1606 56 
L 191 3500 
L 800 3500 
L 1894 763 
L 2988 3500 
L 3597 3500 
L 2059 -325 
z
" transform="scale(0.015625)"/>
     </defs>
     <use xlink:href="#DejaVuSans-66"/>
     <use xlink:href="#DejaVuSans-61" x="35.205078"/>
     <use xlink:href="#DejaVuSans-6d" x="96.484375"/>
     <use xlink:href="#DejaVuSans-69" x="193.896484"/>
     <use xlink:href="#DejaVuSans-6c" x="221.679688"/>
     <use xlink:href="#DejaVuSans-79" x="249.462891"/>
    </g>
   </g>
   <g id="text_17">
    <!-- CSGate -->
    <g transform="translate(104.59875 107.927521) scale(0.1 -0.1)">
     <defs>
      <path id="DejaVuSans-53" d="M 3425 4513 
L 3425 3897 
Q 3066 4069 2747 4153 
Q 2428 4238 2131 4238 
Q 1616 4238 1336 4038 
Q 1056 3838 1056 3469 
Q 1056 3159 1242 3001 
Q 1428 2844 1947 2747 
L 2328 2669 
Q 3034 2534 3370 2195 
Q 3706 1856 3706 1288 
Q 3706 609 3251 259 
Q 2797 -91 1919 -91 
Q 1588 -91 1214 -16 
Q 841 59 441 206 
L 441 856 
Q 825 641 1194 531 
Q 1563 422 1919 422 
Q 2459 422 2753 634 
Q 3047 847 3047 1241 
Q 3047 1584 2836 1778 
Q 2625 1972 2144 2069 
L 1759 2144 
Q 1053 2284 737 2584 
Q 422 2884 422 3419 
Q 422 4038 858 4394 
Q 1294 4750 2059 4750 
Q 2388 4750 2728 4690 
Q 3069 4631 3425 4513 
z
" transform="scale(0.015625)"/>
     </defs>
     <use xlink:href="#DejaVuSans-43"/>
     <use xlink:href="#DejaVuSans-53" x="69.824219"/>
     <use xlink:href="#DejaVuSans-47" x="133.300781"/>
     <use xlink:href="#DejaVuSans-61" x="210.791016"/>
     <use xlink:href="#DejaVuSans-74" x="272.070312"/>
     <use xlink:href="#DejaVuSans-65" x="311.279297"/>
    </g>
    <!-- family -->
    <g transform="translate(111.015937 119.125333) scale(0.1 -0.1)">
     <use xlink:href="#DejaVuSans-66"/>
     <use xlink:href="#DejaVuSans-61" x="35.205078"/>
     <use xlink:href="#DejaVuSans-6d" x="96.484375"/>
     <use xlink:href="#DejaVuSans-69" x="193.896484"/>
     <use xlink:href="#DejaVuSans-6c" x="221.679688"/>
     <use xlink:href="#DejaVuSans-79" x="249.462891"/>
    </g>
   </g>
   <g id="text_18">
    <!-- Quasiprobability decomposition for RZZGate -->
    <g transform="translate(102.343125 35.472) scale(0.12 -0.12)">
     <defs>
      <path id="DejaVuSans-51" d="M 2522 4238 
Q 1834 4238 1429 3725 
Q 1025 3213 1025 2328 
Q 1025 1447 1429 934 
Q 1834 422 2522 422 
Q 3209 422 3611 934 
Q 4013 1447 4013 2328 
Q 4013 3213 3611 3725 
Q 3209 4238 2522 4238 
z
M 3406 84 
L 4238 -825 
L 3475 -825 
L 2784 -78 
Q 2681 -84 2626 -87 
Q 2572 -91 2522 -91 
Q 1538 -91 948 567 
Q 359 1225 359 2328 
Q 359 3434 948 4092 
Q 1538 4750 2522 4750 
Q 3503 4750 4090 4092 
Q 4678 3434 4678 2328 
Q 4678 1516 4351 937 
Q 4025 359 3406 84 
z
" transform="scale(0.015625)"/>
      <path id="DejaVuSans-70" d="M 1159 525 
L 1159 -1331 
L 581 -1331 
L 581 3500 
L 1159 3500 
L 1159 2969 
Q 1341 3281 1617 3432 
Q 1894 3584 2278 3584 
Q 2916 3584 3314 3078 
Q 3713 2572 3713 1747 
Q 3713 922 3314 415 
Q 2916 -91 2278 -91 
Q 1894 -91 1617 61 
Q 1341 213 1159 525 
z
M 3116 1747 
Q 3116 2381 2855 2742 
Q 2594 3103 2138 3103 
Q 1681 3103 1420 2742 
Q 1159 2381 1159 1747 
Q 1159 1113 1420 752 
Q 1681 391 2138 391 
Q 2594 391 2855 752 
Q 3116 1113 3116 1747 
z
" transform="scale(0.015625)"/>
     </defs>
     <use xlink:href="#DejaVuSans-51"/>
     <use xlink:href="#DejaVuSans-75" x="78.710938"/>
     <use xlink:href="#DejaVuSans-61" x="142.089844"/>
     <use xlink:href="#DejaVuSans-73" x="203.369141"/>
     <use xlink:href="#DejaVuSans-69" x="255.46875"/>
     <use xlink:href="#DejaVuSans-70" x="283.251953"/>
     <use xlink:href="#DejaVuSans-72" x="346.728516"/>
     <use xlink:href="#DejaVuSans-6f" x="385.591797"/>
     <use xlink:href="#DejaVuSans-62" x="446.773438"/>
     <use xlink:href="#DejaVuSans-61" x="510.25"/>
     <use xlink:href="#DejaVuSans-62" x="571.529297"/>
     <use xlink:href="#DejaVuSans-69" x="635.005859"/>
     <use xlink:href="#DejaVuSans-6c" x="662.789062"/>
     <use xlink:href="#DejaVuSans-69" x="690.572266"/>
     <use xlink:href="#DejaVuSans-74" x="718.355469"/>
     <use xlink:href="#DejaVuSans-79" x="757.564453"/>
     <use xlink:href="#DejaVuSans-20" x="816.744141"/>
     <use xlink:href="#DejaVuSans-64" x="848.53125"/>
     <use xlink:href="#DejaVuSans-65" x="912.007812"/>
     <use xlink:href="#DejaVuSans-63" x="973.53125"/>
     <use xlink:href="#DejaVuSans-6f" x="1028.511719"/>
     <use xlink:href="#DejaVuSans-6d" x="1089.693359"/>
     <use xlink:href="#DejaVuSans-70" x="1187.105469"/>
     <use xlink:href="#DejaVuSans-6f" x="1250.582031"/>
     <use xlink:href="#DejaVuSans-73" x="1311.763672"/>
     <use xlink:href="#DejaVuSans-69" x="1363.863281"/>
     <use xlink:href="#DejaVuSans-74" x="1391.646484"/>
     <use xlink:href="#DejaVuSans-69" x="1430.855469"/>
     <use xlink:href="#DejaVuSans-6f" x="1458.638672"/>
     <use xlink:href="#DejaVuSans-6e" x="1519.820312"/>
     <use xlink:href="#DejaVuSans-20" x="1583.199219"/>
     <use xlink:href="#DejaVuSans-66" x="1614.986328"/>
     <use xlink:href="#DejaVuSans-6f" x="1650.191406"/>
     <use xlink:href="#DejaVuSans-72" x="1711.373047"/>
     <use xlink:href="#DejaVuSans-20" x="1752.486328"/>
     <use xlink:href="#DejaVuSans-52" x="1784.273438"/>
     <use xlink:href="#DejaVuSans-5a" x="1853.755859"/>
     <use xlink:href="#DejaVuSans-5a" x="1922.261719"/>
     <use xlink:href="#DejaVuSans-47" x="1990.767578"/>
     <use xlink:href="#DejaVuSans-61" x="2068.257812"/>
     <use xlink:href="#DejaVuSans-74" x="2129.537109"/>
     <use xlink:href="#DejaVuSans-65" x="2168.746094"/>
    </g>
   </g>
   <g id="legend_1">
    <g id="patch_7">
     <path d="M 328.92 139.5845 
L 407.72 139.5845 
Q 409.72 139.5845 409.72 137.5845 
L 409.72 48.472 
Q 409.72 46.472 407.72 46.472 
L 328.92 46.472 
Q 326.92 46.472 326.92 48.472 
L 326.92 137.5845 
Q 326.92 139.5845 328.92 139.5845 
z
" style="fill: #ffffff; opacity: 0.8; stroke: #cccccc; stroke-linejoin: miter"/>
    </g>
    <g id="patch_8">
     <path d="M 330.92 58.070438 
L 350.92 58.070438 
L 350.92 51.070438 
L 330.92 51.070438 
z
" style="fill: #57ffff"/>
    </g>
    <g id="text_19">
     <!-- $I \otimes I$  -->
     <g transform="translate(358.92 58.070438) scale(0.1 -0.1)">
      <defs>
       <path id="DejaVuSans-Oblique-49" d="M 1081 4666 
L 1716 4666 
L 806 0 
L 172 0 
L 1081 4666 
z
" transform="scale(0.015625)"/>
       <path id="DejaVuSans-2297" d="M 3306 3522 
Q 3016 3644 2681 3644 
Q 2347 3644 2056 3522 
Q 1769 3400 1531 3163 
Q 1291 2922 1172 2634 
Q 1053 2347 1053 2006 
Q 1053 1675 1172 1387 
Q 1291 1100 1531 859 
Q 1769 622 2056 500 
Q 2347 378 2681 378 
Q 3016 378 3306 500 
Q 3594 622 3831 859 
Q 4072 1100 4190 1387 
Q 4309 1675 4309 2006 
Q 4309 2347 4190 2634 
Q 4072 2922 3831 3163 
Q 3594 3400 3306 3522 
z
M 1878 3956 
Q 2250 4113 2681 4113 
Q 3113 4113 3484 3956 
Q 3856 3800 4163 3494 
Q 4472 3184 4625 2813 
Q 4778 2444 4778 2006 
Q 4778 1578 4625 1206 
Q 4472 838 4163 528 
Q 3856 222 3484 65 
Q 3113 -91 2681 -91 
Q 2250 -91 1878 65 
Q 1506 222 1200 528 
Q 891 838 738 1206 
Q 584 1578 584 2006 
Q 584 2444 738 2813 
Q 891 3184 1200 3494 
Q 1506 3800 1878 3956 
z
M 3847 2794 
L 3056 2006 
L 3844 1219 
L 3469 844 
L 2681 1631 
L 1894 841 
L 1516 1219 
L 2306 2006 
L 1519 2794 
L 1894 3169 
L 2681 2381 
L 3469 3172 
L 3847 2794 
z
" transform="scale(0.015625)"/>
      </defs>
      <use xlink:href="#DejaVuSans-Oblique-49" transform="translate(0 0.09375)"/>
      <use xlink:href="#DejaVuSans-2297" transform="translate(48.974609 0.09375)"/>
      <use xlink:href="#DejaVuSans-Oblique-49" transform="translate(152.246094 0.09375)"/>
      <use xlink:href="#DejaVuSans-20" transform="translate(181.738281 0.09375)"/>
     </g>
    </g>
    <g id="patch_9">
     <path d="M 330.92 72.748563 
L 350.92 72.748563 
L 350.92 65.748563 
L 330.92 65.748563 
z
" style="fill: #2b568c"/>
    </g>
    <g id="text_20">
     <!-- $Z \otimes Z$ -->
     <g transform="translate(358.92 72.748563) scale(0.1 -0.1)">
      <defs>
       <path id="DejaVuSans-Oblique-5a" d="M 838 4666 
L 4500 4666 
L 4409 4184 
L 794 531 
L 3769 531 
L 3669 0 
L -141 0 
L -50 481 
L 3566 4134 
L 738 4134 
L 838 4666 
z
" transform="scale(0.015625)"/>
      </defs>
      <use xlink:href="#DejaVuSans-Oblique-5a" transform="translate(0 0.09375)"/>
      <use xlink:href="#DejaVuSans-2297" transform="translate(87.988281 0.09375)"/>
      <use xlink:href="#DejaVuSans-Oblique-5a" transform="translate(191.259766 0.09375)"/>
     </g>
    </g>
    <g id="patch_10">
     <path d="M 330.92 87.426688 
L 350.92 87.426688 
L 350.92 80.426688 
L 330.92 80.426688 
z
" style="fill: #007da3"/>
    </g>
    <g id="text_21">
     <!-- $M_z \otimes S$ -->
     <g transform="translate(358.92 87.426688) scale(0.1 -0.1)">
      <defs>
       <path id="DejaVuSans-Oblique-4d" d="M 1081 4666 
L 2028 4666 
L 2572 1522 
L 4378 4666 
L 5350 4666 
L 4441 0 
L 3828 0 
L 4622 4091 
L 2791 897 
L 2175 897 
L 1581 4103 
L 788 0 
L 172 0 
L 1081 4666 
z
" transform="scale(0.015625)"/>
       <path id="DejaVuSans-Oblique-7a" d="M 744 3500 
L 3475 3500 
L 3372 2975 
L 738 459 
L 2913 459 
L 2822 0 
L -19 0 
L 84 525 
L 2719 3041 
L 653 3041 
L 744 3500 
z
" transform="scale(0.015625)"/>
       <path id="DejaVuSans-Oblique-53" d="M 3859 4513 
L 3738 3897 
Q 3422 4066 3111 4152 
Q 2800 4238 2509 4238 
Q 1944 4238 1609 3991 
Q 1275 3744 1275 3334 
Q 1275 3109 1398 2989 
Q 1522 2869 2034 2731 
L 2413 2638 
Q 3053 2472 3303 2217 
Q 3553 1963 3553 1503 
Q 3553 797 2998 353 
Q 2444 -91 1538 -91 
Q 1166 -91 791 -17 
Q 416 56 38 206 
L 166 856 
Q 513 641 861 531 
Q 1209 422 1556 422 
Q 2147 422 2503 684 
Q 2859 947 2859 1369 
Q 2859 1650 2717 1795 
Q 2575 1941 2106 2059 
L 1728 2156 
Q 1081 2325 845 2545 
Q 609 2766 609 3163 
Q 609 3859 1145 4304 
Q 1681 4750 2541 4750 
Q 2875 4750 3203 4690 
Q 3531 4631 3859 4513 
z
" transform="scale(0.015625)"/>
      </defs>
      <use xlink:href="#DejaVuSans-Oblique-4d" transform="translate(0 0.78125)"/>
      <use xlink:href="#DejaVuSans-Oblique-7a" transform="translate(86.279297 -15.625) scale(0.7)"/>
      <use xlink:href="#DejaVuSans-2297" transform="translate(145.239258 0.78125)"/>
      <use xlink:href="#DejaVuSans-Oblique-53" transform="translate(248.510742 0.78125)"/>
     </g>
    </g>
    <g id="patch_11">
     <path d="M 330.92 103.126688 
L 350.92 103.126688 
L 350.92 96.126688 
L 330.92 96.126688 
z
" style="fill: #ffa502"/>
    </g>
    <g id="text_22">
     <!-- $-M_z \otimes S^\dagger$ -->
     <g transform="translate(358.92 103.126688) scale(0.1 -0.1)">
      <defs>
       <path id="DejaVuSans-2212" d="M 678 2272 
L 4684 2272 
L 4684 1741 
L 678 1741 
L 678 2272 
z
" transform="scale(0.015625)"/>
       <path id="DejaVuSans-2020" d="M 1325 4666 
L 1875 4666 
L 1875 3353 
L 3022 3353 
L 3022 2875 
L 1875 2875 
L 1875 -616 
L 1325 -616 
L 1325 2875 
L 178 2875 
L 178 3353 
L 1325 3353 
L 1325 4666 
z
" transform="scale(0.015625)"/>
      </defs>
      <use xlink:href="#DejaVuSans-2212" transform="translate(0 0.684375)"/>
      <use xlink:href="#DejaVuSans-Oblique-4d" transform="translate(83.789062 0.684375)"/>
      <use xlink:href="#DejaVuSans-Oblique-7a" transform="translate(170.068359 -15.721875) scale(0.7)"/>
      <use xlink:href="#DejaVuSans-2297" transform="translate(229.02832 0.684375)"/>
      <use xlink:href="#DejaVuSans-Oblique-53" transform="translate(332.299805 0.684375)"/>
      <use xlink:href="#DejaVuSans-2020" transform="translate(416.614583 38.965625) scale(0.7)"/>
     </g>
    </g>
    <g id="patch_12">
     <path d="M 330.92 117.804813 
L 350.92 117.804813 
L 350.92 110.804813 
L 330.92 110.804813 
z
" style="fill: #7abaff"/>
    </g>
    <g id="text_23">
     <!-- $S \otimes M_z$ -->
     <g transform="translate(358.92 117.804813) scale(0.1 -0.1)">
      <use xlink:href="#DejaVuSans-Oblique-53" transform="translate(0 0.78125)"/>
      <use xlink:href="#DejaVuSans-2297" transform="translate(82.958984 0.78125)"/>
      <use xlink:href="#DejaVuSans-Oblique-4d" transform="translate(186.230469 0.78125)"/>
      <use xlink:href="#DejaVuSans-Oblique-7a" transform="translate(272.509766 -15.625) scale(0.7)"/>
     </g>
    </g>
    <g id="patch_13">
     <path d="M 330.92 133.504813 
L 350.92 133.504813 
L 350.92 126.504813 
L 330.92 126.504813 
z
" style="fill: #f2cc86"/>
    </g>
    <g id="text_24">
     <!-- $-S^\dagger \otimes M_z$ -->
     <g transform="translate(358.92 133.504813) scale(0.1 -0.1)">
      <use xlink:href="#DejaVuSans-2212" transform="translate(0 0.684375)"/>
      <use xlink:href="#DejaVuSans-Oblique-53" transform="translate(83.789062 0.684375)"/>
      <use xlink:href="#DejaVuSans-2020" transform="translate(168.103841 38.965625) scale(0.7)"/>
      <use xlink:href="#DejaVuSans-2297" transform="translate(238.958333 0.684375)"/>
      <use xlink:href="#DejaVuSans-Oblique-4d" transform="translate(342.229818 0.684375)"/>
      <use xlink:href="#DejaVuSans-Oblique-7a" transform="translate(428.509115 -15.721875) scale(0.7)"/>
     </g>
    </g>
   </g>
  </g>
 </g>
 <defs>
  <clipPath id="pec01440535">
   <rect x="57.6" y="41.472" width="357.12" height="266.112"/>
  </clipPath>
 </defs>
</svg>
