<?xml version="1.0" encoding="UTF-8" standalone="no"?>
<svg
   xmlns:svg="http://www.w3.org/2000/svg"
   xmlns="http://www.w3.org/2000/svg"
   width="79.653473"
   height="25.659819"
   viewBox="0 0 79.653473 25.659819"
   fill="none"
   version="1.1"
   id="svg68">
  <g
     clip-path="url(#clip0_205_200)"
     id="g32"
     transform="translate(-0.09862329,-3.0623815)">
    <path
       d="m 39.1853,26.1607 h -2.049 c -1.6134,0 -2.359,-0.916 -2.359,-2.3818 v -1.136 c -3.2286,-0.4269 -5.2776,-3.0835 -5.2776,-7.6659 0,-5.03117 2.4635,-7.72999 6.2304,-7.72999 3.7669,0 6.2286,2.69882 6.2286,7.72999 0,4.4541 -1.9233,7.0888 -4.9871,7.6238 v 1.5409 h 2.1677 z m 0.2692,-10.0001 v -2.3507 c 0,-2.7189 -1.4894,-4.39724 -3.7191,-4.39724 -2.2297,0 -3.7191,1.67094 -3.7191,4.39724 v 2.3507 c 0,2.719 1.4894,4.3973 3.7191,4.3973 2.2297,0 3.7191,-1.6783 3.7191,-4.3973 z"
       fill="#010101"
       id="path2" />
    <path
       d="M 43.6217,8.5442 V 8.17776 c 0,-0.70723 0.4144,-1.22024 1.346,-1.22024 0.9315,0 1.3247,0.51301 1.3247,1.22024 V 8.5442 c 0,0.70539 -0.3932,1.22024 -1.3247,1.22024 -0.9316,0 -1.346,-0.51485 -1.346,-1.22024 z"
       fill="#010101"
       id="path4" />
    <path
       d="m 46.0852,11.3218 h -2.2563 v 11.1343 h 2.2563 z"
       fill="#010101"
       id="path6" />
    <path
       d="m 47.9678,20.6147 1.4433,-1.3705 c 0.7864,0.9857 1.7587,1.5849 3.0426,1.5849 1.284,0 1.9659,-0.5497 1.9659,-1.4988 0,-0.7072 -0.4145,-1.2422 -1.532,-1.3924 l -0.9935,-0.1283 c -2.1943,-0.2785 -3.542,-1.2642 -3.542,-3.3199 0,-2.162 1.6346,-3.4262 3.9936,-3.4262 1.9481,0 3.0426,0.6651 4.0167,1.7772 l -1.3867,1.3705 c -0.3227,-0.3964 -0.7253,-0.7148 -1.1797,-0.9329 -0.4544,-0.2181 -0.9494,-0.3306 -1.4503,-0.3295 -1.2397,0 -1.8206,0.5497 -1.8206,1.3906 0,0.841 0.5171,1.2423 1.6559,1.4365 l 0.9935,0.1282 c 2.359,0.3665 3.4145,1.4346 3.4145,3.232 0,2.1419 -1.6753,3.5765 -4.2628,3.5765 -2.0207,0 -3.3454,-0.7915 -4.3584,-2.0979 z"
       fill="#010101"
       id="path8" />
    <path
       d="m 58.128,6.60944 h 2.2634 v 9.72166 h 0.1027 l 1.4912,-1.9916 2.5874,-3.0177 h 2.6282 l -3.774,4.3039 4.2256,6.8304 h -2.6937 l -3.0851,-5.3134 -1.4823,1.6728 v 3.6406 H 58.128 Z"
       fill="#010101"
       id="path10" />
    <path
       d="M 69.2181,8.5442 V 8.17776 c 0,-0.70723 0.4144,-1.22024 1.346,-1.22024 0.9315,0 1.3229,0.51301 1.3229,1.22024 V 8.5442 c 0,0.70539 -0.3932,1.22024 -1.3229,1.22024 -0.9298,0 -1.346,-0.51485 -1.346,-1.22024 z"
       fill="#010101"
       id="path12" />
    <path
       d="m 71.6816,11.3218 h -2.2563 v 11.1343 h 2.2563 z"
       fill="#010101"
       id="path14" />
    <path
       d="m 77.6198,22.4561 c -1.5532,0 -2.3803,-0.8996 -2.3803,-2.4203 v -6.8085 h -1.6771 v -1.9055 h 0.9121 c 0.7438,0 0.9917,-0.3224 0.9917,-1.0993 V 8.2804 h 2.0296 v 3.0414 h 2.2563 v 1.9055 h -2.2563 v 7.3288 h 2.0898 v 1.9055 z"
       fill="#010101"
       id="path16" />
    <path
       d="m 23.225,21.8972 c -0.0248,-2.3726 -5.4069,-3.712 -10.4737,-3.7706 -5.37505,0 -10.93602,1.4071 -10.95373,3.7633 v 0.0147 c 0.02126,2.3672 5.40689,3.7047 10.47373,3.7633 5.375,0 10.936,-1.4071 10.9537,-3.7633 z m -10.9555,2.9059 c -5.66718,-0.066 -9.62184,-1.5812 -9.63601,-2.904 0.02302,-1.3742 4.3372,-2.9059 10.11781,-2.9059 5.6672,0.066 9.6219,1.5812 9.636,2.904 -0.0159,1.3724 -4.339,2.9059 -10.1178,2.9059 z"
       fill="url(#paint0_radial_205_200)"
       id="path18"
       style="fill:url(#paint0_radial_205_200)" />
    <path
       d="M 12.5334,28.713 C 10.3385,28.7199 8.18119,28.1239 6.2819,26.9857 4.38261,25.8475 2.80946,24.2081 1.72321,22.2349 0.636959,20.2617 0.0765634,18.0256 0.0992879,15.755 0.122012,13.4843 0.727043,11.2607 1.85255,9.31117 2.97806,7.36168 4.58368,5.75629 6.50535,4.65905 8.42701,3.56181 10.5958,3.01207 12.7901,3.066 c 2.1943,0.05392 4.3354,0.70959 6.2046,1.9 1.8691,1.1904 3.3992,2.87286 4.434,4.87544 v 0 c 1.0109,1.95086 1.5162,4.13926 1.4666,6.35216 -0.0495,2.2129 -0.6522,4.3748 -1.7493,6.2751 -1.0971,1.9004 -2.6513,3.4743 -4.5111,4.5686 -1.8598,1.0943 -3.9619,1.6716 -6.1015,1.6757 z M 12.4945,3.94544 C 9.96864,3.95097 7.51422,4.81303 5.50722,6.39954 3.50021,7.98606 2.0513,10.2095 1.38245,12.7293 c -0.66885,2.5199 -0.520747,5.197 0.42162,7.6214 0.94236,2.4245 2.62702,4.4624 4.79588,5.8017 2.16887,1.3392 4.70235,1.906 7.21225,1.6133 2.51,-0.2926 4.858,-1.4284 6.6843,-3.2335 1.8264,-1.8051 3.0303,-4.1798 3.4275,-6.7604 0.3972,-2.5805 -0.0344,-5.2247 -1.2285,-7.5273 v 0 C 21.7049,8.33818 20.233,6.74555 18.4366,5.63628 16.6402,4.527 14.5865,3.94264 12.4945,3.94544 Z"
       fill="#010101"
       id="path20" />
    <path
       d="m 15.7071,26.9889 c -0.0124,-0.9802 -1.3814,-1.7204 -3.1878,-1.7204 -1.8065,0 -3.18786,0.7329 -3.18786,1.7204 v 0.0128 c 0.0124,0.9803 1.38136,1.7205 3.18786,1.7205 1.8064,0 3.1878,-0.7329 3.1878,-1.7205 z m -3.1878,0.9161 c -1.4328,0 -2.3466,-0.535 -2.3573,-0.9161 -0.0106,-0.3811 0.9245,-0.9161 2.3573,-0.9161 1.4327,0 2.3448,0.5369 2.3554,0.9161 0.0106,0.3793 -0.9298,0.9088 -2.3608,0.9088 z"
       fill="url(#paint1_radial_205_200)"
       id="path22"
       style="fill:url(#paint1_radial_205_200)" />
    <path
       d="m 24.9039,15.9005 c -0.0354,-2.5376 -6.2552,-3.9851 -12.1066,-4.0474 -6.19852,0 -12.63968,1.5208 -12.6751,4.0474 0,0 0,0 0,0.011 0.03542,2.5375 6.25343,3.985 12.1066,4.0473 6.1985,0 12.6397,-1.5207 12.6751,-4.0473 0,0 0,-0.0074 0,-0.011 z M 12.2324,19.0921 C 5.60524,19.0207 0.98291,17.3552 0.959887,15.9023 0.98291,14.3944 6.03737,12.7106 12.7938,12.7106 c 6.6271,0.0715 11.2494,1.7369 11.2724,3.1899 -0.023,1.5079 -5.0774,3.1916 -11.8338,3.1916 z"
       fill="url(#paint2_radial_205_200)"
       id="path24"
       style="fill:url(#paint2_radial_205_200)" />
    <path
       d="m 12.7513,6.09277 c -5.37682,0 -10.93779,1.41263 -10.93779,3.77249 0,2.35984 5.3821,3.71574 10.44899,3.77434 5.3767,0 10.9377,-1.4126 10.9377,-3.77434 0,-2.3617 -5.375,-3.71386 -10.4489,-3.77249 z M 12.2749,12.773 C 6.60763,12.7107 2.65651,11.1881 2.65651,9.86526 c 0,-1.36865 4.32127,-2.90586 10.09479,-2.90586 5.6672,0.06596 9.6148,1.58485 9.6148,2.90586 0.0035,1.37964 -4.316,2.90774 -10.0912,2.90774 z"
       fill="url(#paint3_radial_205_200)"
       id="path26"
       style="fill:url(#paint3_radial_205_200)" />
    <path
       d="m 12.4714,3.06781 c -0.9014,0 -2.9965,0.14108 -2.9965,1.4456 0,1.30452 2.0951,1.4456 2.9965,1.4456 0.9015,0 2.9966,-0.14108 2.9966,-1.4456 0,-1.30452 -2.0951,-1.4456 -2.9966,-1.4456 z m 0,0.87762 c 1.2663,0 2.1483,0.30048 2.1483,0.56798 0,0.2675 -0.8855,0.56798 -2.1483,0.56798 -1.2627,0 -2.1482,-0.29865 -2.1482,-0.56798 0,-0.26933 0.882,-0.56798 2.1482,-0.56798 z"
       fill="#000000"
       id="path28" />
    <path
       d="m 17.7101,23.669 c -0.051,6e-4 -0.1019,0.0048 -0.1523,0.0128 v 0 L 12.8983,15.3582 8.65669,7.77472 C 8.80781,7.5793 8.88995,7.33639 8.88955,7.08614 8.88915,6.83588 8.80622,6.59326 8.65448,6.39837 8.50274,6.20347 8.29126,6.06797 8.055,6.01426 7.81874,5.96056 7.57183,5.99185 7.35509,6.10298 7.13835,6.2141 6.96475,6.39841 6.86297,6.62544 6.76119,6.85247 6.73734,7.10862 6.79534,7.35158 6.85335,7.59453 6.98975,7.80974 7.18199,7.96163 7.37424,8.11353 7.61082,8.19301 7.85265,8.18696 7.89953,8.18498 7.94625,8.18009 7.99256,8.1723 l 4.24154,7.5835 1.9163,3.428 2.7344,4.8864 c -0.1533,0.193 -0.2385,0.4342 -0.2416,0.684 -0.0031,0.2497 0.0761,0.4931 0.2245,0.6901 0.1485,0.197 0.3574,0.3358 0.5923,0.3935 0.2349,0.0578 0.4818,0.0311 0.7,-0.0757 0.2183,-0.1068 0.3949,-0.2873 0.5007,-0.5118 0.1059,-0.2245 0.1347,-0.4796 0.0817,-0.7233 -0.053,-0.2437 -0.1847,-0.4615 -0.3733,-0.6174 -0.1886,-0.156 -0.4229,-0.2408 -0.6643,-0.2406 z"
       fill="url(#paint4_radial_205_200)"
       id="path30"
       style="fill:url(#paint4_radial_205_200)" />
  </g>
  <defs
     id="defs66">
    <radialGradient
       id="paint0_radial_205_200"
       cx="0"
       cy="0"
       r="1"
       gradientUnits="userSpaceOnUse"
       gradientTransform="matrix(11.04597,2.4997924,-1.6929647,7.4807961,16.6478,16.1861)">
      <stop
         offset="0.16"
         stop-color="#010101"
         stop-opacity="0"
         id="stop38" />
      <stop
         offset="1"
         stop-color="#010101"
         id="stop40" />
    </radialGradient>
    <radialGradient
       id="paint1_radial_205_200"
       cx="0"
       cy="0"
       r="1"
       gradientUnits="userSpaceOnUse"
       gradientTransform="matrix(6.07803,0,0,3.84981,12.567,23.8474)">
      <stop
         stop-color="#010101"
         stop-opacity="0"
         id="stop43" />
      <stop
         offset="1"
         stop-color="#010101"
         id="stop45" />
    </radialGradient>
    <radialGradient
       id="paint2_radial_205_200"
       cx="0"
       cy="0"
       r="1"
       gradientUnits="userSpaceOnUse"
       gradientTransform="matrix(10.4621,0,0,8.28335,12.6256,8.84102)">
      <stop
         offset="0.2"
         stop-color="#010101"
         stop-opacity="0"
         id="stop48" />
      <stop
         offset="1"
         stop-color="#010101"
         id="stop50" />
    </radialGradient>
    <radialGradient
       id="paint3_radial_205_200"
       cx="0"
       cy="0"
       r="1"
       gradientUnits="userSpaceOnUse"
       gradientTransform="matrix(2.881779,6.6334945,-9.1890392,3.9919805,6.15139,3.39141)">
      <stop
         offset="0.36"
         stop-color="#010101"
         stop-opacity="0"
         id="stop53" />
      <stop
         offset="1"
         stop-color="#010101"
         id="stop55" />
    </radialGradient>
    <radialGradient
       id="paint4_radial_205_200"
       cx="0"
       cy="0"
       r="1"
       gradientUnits="userSpaceOnUse"
       gradientTransform="matrix(185.524,0,0,191.934,-65.9476,-212.607)">
      <stop
         stop-color="#010101"
         stop-opacity="0"
         id="stop58" />
      <stop
         offset="0.37"
         stop-color="#010101"
         id="stop60" />
    </radialGradient>
    <clipPath
       id="clip0_205_200">
      <rect
         width="80"
         height="25.806499"
         fill="#ffffff"
         transform="translate(0,3)"
         id="rect63"
         x="0"
         y="0" />
    </clipPath>
  </defs>
</svg>
